<svg width="128" height="128" viewBox="0 0 128 128" fill="none" xmlns="http://www.w3.org/2000/svg">
<rect y="63.6396" width="90" height="90" rx="20" transform="rotate(-45 0 63.6396)" fill="#F6CB6A"/>
<g opacity="0.8" clip-path="url(#clip0)">
<path d="M80.802 66.0214L76.4665 70.357C76.4098 70.2884 76.3498 70.2217 76.2857 70.1576L70.6864 64.5583C70.3768 64.2488 69.875 64.2488 69.5654 64.5583C69.2559 64.8679 69.2559 65.3698 69.5654 65.6792L75.1647 71.2784C75.6461 71.7597 75.6461 72.5429 75.1648 73.0242C74.6832 73.5055 73.9001 73.5056 73.4189 73.0242L70.3075 69.9128C69.9979 69.6033 69.4961 69.6033 69.1866 69.9128C68.877 70.2224 68.877 70.7242 69.1866 71.0337L72.298 74.1451C72.2981 74.1452 72.2983 74.1453 72.2984 74.1455C72.5313 74.3786 72.6596 74.6884 72.6596 75.018C72.6596 75.3477 72.5312 75.6577 72.298 75.8909C72.0648 76.1241 71.7549 76.2525 71.4251 76.2525C71.0954 76.2525 70.7854 76.1241 70.5523 75.8909L67.4409 72.7795C67.1313 72.47 66.6295 72.47 66.32 72.7795C66.0104 73.0891 66.0104 73.591 66.32 73.9004L69.4313 77.0118C69.9127 77.4931 69.9127 78.2763 69.4314 78.7575C69.1982 78.9908 68.8881 79.1192 68.5584 79.1192C68.2287 79.1192 67.9187 78.9908 67.6856 78.7577L64.5742 75.6463C64.2645 75.3367 63.7628 75.3367 63.4532 75.6463C63.1437 75.9558 63.1437 76.4577 63.4532 76.7671L66.5646 79.8785C67.046 80.3598 67.046 81.143 66.5646 81.6243C66.3315 81.8574 66.0215 81.9858 65.6918 81.9858C65.3621 81.9858 65.0521 81.8574 64.819 81.6243L62.8033 79.6086C63.4455 78.5384 63.3062 77.1266 62.3846 76.205L62.3368 76.1572C61.7228 75.5432 60.891 75.2766 60.0876 75.3568C60.0424 74.6845 59.7597 74.0584 59.2787 73.5773C58.9066 73.2052 58.4545 72.9607 57.9772 72.8436C58.0989 72.5279 58.1632 72.1894 58.1632 71.841C58.1632 71.0968 57.8734 70.3972 57.3472 69.871C56.821 69.3448 56.1214 69.055 55.3772 69.055C54.9531 69.055 54.5437 69.1494 54.1724 69.3278C54.0475 68.8841 53.8115 68.4655 53.4631 68.1171C52.377 67.0309 50.6095 67.031 49.5232 68.1171L49.1963 68.4439L48.958 68.2056C48.5747 67.8223 48.3636 67.3128 48.3636 66.7708V64.7036C48.3636 64.4934 48.2801 64.2918 48.1316 64.1432L44.7478 60.7595L45.6993 59.8079C46.0088 59.4984 46.0088 58.9965 45.6992 58.6871C45.3897 58.3774 44.8879 58.3775 44.5783 58.6871L43.3038 59.9617C43.0635 60.202 42.6722 60.2021 42.4319 59.9617L38.3531 55.8828C38.0436 55.5732 37.5418 55.5732 37.2322 55.8828C36.9226 56.1923 36.9226 56.6941 37.2322 57.0037L41.3111 61.0826C41.7403 61.5117 42.304 61.7263 42.8678 61.7263C43.0483 61.7263 43.2282 61.7017 43.4043 61.6578L46.7784 65.0318V66.7707C46.7784 67.7361 47.1544 68.6437 47.837 69.3264L48.0754 69.5648L47.8102 69.8301C47.284 70.3563 46.9941 71.0559 46.9941 71.8001C46.9941 72.5443 47.2839 73.2439 47.8101 73.77C48.3533 74.3131 49.0667 74.5847 49.7802 74.5847C49.7915 74.5847 49.8028 74.5841 49.8141 74.5839C49.814 74.5956 49.8133 74.6072 49.8133 74.619C49.8133 75.3633 50.1031 76.0629 50.6292 76.589C51.1554 77.1151 51.8552 77.4049 52.5993 77.4049C52.611 77.4049 52.6227 77.4042 52.6345 77.4041C52.6257 78.1287 52.8966 78.8563 53.4482 79.4079C53.9914 79.951 54.7049 80.2226 55.4183 80.2226C55.4301 80.2226 55.4418 80.2219 55.4534 80.2218C55.4443 80.9469 55.7152 81.6749 56.2673 82.227L56.315 82.2747C56.8412 82.8009 57.5408 83.0907 58.285 83.0907C59.0292 83.0907 59.7288 82.8009 60.255 82.2747L61.7414 80.7884L63.6982 82.7452C64.2307 83.2779 64.9388 83.5712 65.692 83.5712C66.4452 83.5712 67.1533 83.2779 67.6858 82.7452C68.2477 82.1833 68.5216 81.4413 68.5092 80.7033C68.5256 80.7036 68.542 80.7044 68.5586 80.7044C69.3118 80.7044 70.0199 80.4112 70.5525 79.8785C71.1147 79.3163 71.3887 78.5737 71.3759 77.8353C71.3924 77.8356 71.4089 77.8364 71.4253 77.8364C72.1473 77.8363 72.8695 77.5614 73.419 77.0119C73.9517 76.4794 74.2449 75.7713 74.2449 75.0181C74.2449 75.0015 74.244 74.9851 74.2438 74.9686C74.2598 74.969 74.2759 74.9698 74.292 74.9698C75.014 74.9698 75.7361 74.6949 76.2859 74.1453C76.8836 73.5475 77.1555 72.746 77.1033 71.9624L81.9233 67.1425C82.2328 66.8329 82.2328 66.331 81.9233 66.0216C81.6134 65.7118 81.1116 65.7118 80.802 66.0214ZM48.9309 72.649C48.7041 72.4222 48.5793 72.1207 48.5793 71.8001C48.5793 71.4793 48.7043 71.1778 48.931 70.951L50.644 69.238C50.8782 69.0039 51.1857 68.8869 51.4932 68.8869C51.8006 68.8869 52.1081 69.0038 52.3421 69.2379C52.8103 69.7062 52.8103 70.468 52.3421 70.936L50.629 72.6491C50.1609 73.1173 49.3992 73.1172 48.9309 72.649ZM52.5991 75.8198C52.2784 75.8198 51.9768 75.6949 51.75 75.4681C51.5232 75.2413 51.3984 74.9398 51.3984 74.6191C51.3984 74.2985 51.5233 73.9969 51.7501 73.7701L53.4632 72.057L54.5283 70.9919C54.7551 70.7651 55.0565 70.6402 55.3772 70.6402C55.698 70.6402 55.9995 70.7651 56.2262 70.9919C56.453 71.2187 56.5779 71.5203 56.5779 71.841C56.5779 72.1616 56.453 72.4632 56.2262 72.69L53.448 75.4682C53.2212 75.6949 52.9198 75.8198 52.5991 75.8198ZM54.569 78.2871C54.1008 77.8189 54.1008 77.0571 54.569 76.589L56.4597 74.6981C56.6938 74.4641 57.0012 74.3471 57.3088 74.3471C57.6162 74.3471 57.9237 74.4642 58.1577 74.6982C58.3845 74.925 58.5094 75.2266 58.5094 75.5472C58.5094 75.8678 58.3847 76.1691 58.1581 76.3958L56.267 78.2869C55.7989 78.7552 55.0371 78.7552 54.569 78.2871ZM59.1337 81.1538C58.9069 81.3806 58.6055 81.5055 58.2847 81.5055C57.9641 81.5055 57.6625 81.3806 57.4358 81.1538L57.3881 81.1061C56.9199 80.6379 56.9199 79.8762 57.3881 79.408L59.2788 77.5174C59.2794 77.5167 59.28 77.5161 59.2805 77.5156L59.5177 77.2782C59.7519 77.0441 60.0594 76.9271 60.3669 76.9271C60.6743 76.9271 60.9819 77.0442 61.2158 77.2782L61.2635 77.3259C61.7318 77.794 61.7318 78.5558 61.2635 79.024L59.1337 81.1538Z" fill="black"/>
<path d="M90.7677 59.2224C90.4582 58.9129 89.9564 58.9128 89.6468 59.2224L86.6765 62.1927C86.6356 62.2336 86.5682 62.2342 86.5265 62.1944L76.0257 52.1638C76.0041 52.1431 75.9929 52.1174 75.9925 52.0874C75.9922 52.0574 76.0029 52.0314 76.024 52.0103L82.2522 45.7822C82.5617 45.4727 82.5617 44.9708 82.2522 44.6614C81.9426 44.3518 81.4409 44.3518 81.1312 44.6614L74.9031 50.8894C74.5782 51.2144 74.4022 51.6463 74.4075 52.1057C74.4119 52.476 74.5353 52.8246 74.7563 53.1126L71.906 55.9078L69.2205 54.4101C68.8696 54.2143 68.4717 54.1108 68.0698 54.1108H60.4395L59.8588 53.5302C59.3192 52.9906 58.6841 52.5793 57.971 52.3075L55.8588 51.5028L54.8827 50.5267C55.3874 49.6814 55.2788 48.5689 54.5516 47.8419L51.3711 44.6614C51.0615 44.3518 50.5598 44.3518 50.2501 44.6614C49.9406 44.9709 49.9406 45.4728 50.2501 45.7822L53.4306 48.9627C53.6709 49.203 53.6709 49.5942 53.4306 49.8346L46.9668 56.2984C46.6572 56.608 46.6572 57.1098 46.9668 57.4193C47.1216 57.574 47.3245 57.6515 47.5273 57.6515C47.7301 57.6515 47.933 57.5741 48.0879 57.4193L53.8106 51.6965L54.8576 52.7435C54.9367 52.8225 55.0316 52.8839 55.136 52.9238L57.4067 53.7889C57.8966 53.9756 58.3339 54.2565 58.708 54.6228C58.66 54.6633 58.6127 54.7052 58.5677 54.7502L55.5532 57.7649C54.955 58.363 54.6255 59.1585 54.6255 60.0045C54.6255 60.8504 54.955 61.6458 55.5531 62.2441C56.1713 62.8622 56.9798 63.1758 57.792 63.1758C58.5018 63.1758 59.2142 62.9362 59.8042 62.4511L62.0854 60.5757H64.4617L67.1769 63.2909C67.3317 63.4456 67.5346 63.523 67.7374 63.523C67.9402 63.523 68.1431 63.4457 68.2979 63.2909C68.6075 62.9813 68.6075 62.4794 68.2979 62.17L66.3364 60.2084C66.4149 60.0854 66.461 59.9398 66.461 59.7831C66.461 59.3453 66.1062 58.9904 65.6684 58.9904H61.8014C61.6178 58.9904 61.4398 59.0542 61.298 59.1708L58.7975 61.2266C58.1652 61.7462 57.2526 61.7017 56.6741 61.1232C56.3752 60.8243 56.2107 60.4271 56.2107 60.0046C56.2107 59.5821 56.3752 59.1847 56.6741 58.8859L59.6887 55.8712C59.8014 55.7584 59.9515 55.6962 60.1111 55.6962H68.0697C68.2019 55.6962 68.3327 55.7303 68.4482 55.7947L71.4183 57.4512C71.8592 57.6973 72.4199 57.6228 72.7823 57.2686L75.887 54.2238L84.4346 62.3886L83.1903 63.6329C82.8808 63.9425 82.8808 64.4444 83.1904 64.7538C83.3452 64.9086 83.5481 64.986 83.7509 64.986C83.9537 64.986 84.1566 64.9086 84.3114 64.7538L85.5915 63.4737C85.8891 63.6942 86.2443 63.8055 86.6002 63.8055C87.0351 63.8055 87.4699 63.6412 87.7973 63.3137L90.7677 60.3435C91.0772 60.0337 91.0772 59.532 90.7677 59.2224Z" fill="black"/>
</g>
<defs>
<clipPath id="clip0">
<rect width="54" height="54" fill="white" transform="translate(37 37)"/>
</clipPath>
</defs>
</svg>
