<svg xmlns="http://www.w3.org/2000/svg" width="280" height="48" fill="none" viewBox="0 0 280 48">
    <path fill="#242424" d="M80.425 13.632h-8.96V38H65.44V13.632h-8.84V8.75h23.826v4.882zm13.962 8.076c-.79-.108-1.486-.161-2.089-.161-2.196 0-3.636.743-4.32 2.23V38h-5.805V16.263h5.484l.161 2.592c1.165-1.996 2.78-2.993 4.842-2.993.643 0 1.245.087 1.808.26l-.08 5.586zm15.831 14.082c-1.433 1.741-3.415 2.612-5.947 2.612-2.33 0-4.111-.67-5.343-2.01-1.22-1.338-1.842-3.3-1.869-5.885V16.263h5.806v14.043c0 2.263 1.031 3.395 3.094 3.395 1.969 0 3.321-.683 4.058-2.05V16.264h5.826V38h-5.465l-.16-2.21zm20.009 2.612c-3.188 0-5.786-.978-7.795-2.933-1.995-1.956-2.993-4.56-2.993-7.815v-.563c0-2.183.422-4.131 1.265-5.846.844-1.727 2.036-3.053 3.576-3.977 1.554-.938 3.322-1.406 5.304-1.406 2.973 0 5.31.937 7.011 2.812 1.714 1.875 2.571 4.534 2.571 7.976v2.37h-13.841c.187 1.42.75 2.558 1.687 3.415.951.857 2.15 1.286 3.596 1.286 2.237 0 3.985-.81 5.244-2.43l2.852 3.193c-.87 1.233-2.049 2.197-3.535 2.893-1.487.683-3.134 1.025-4.942 1.025zm-.663-17.84c-1.152 0-2.09.389-2.813 1.166-.71.776-1.165 1.888-1.366 3.334h8.076V24.6c-.027-1.285-.375-2.276-1.045-2.973-.669-.71-1.62-1.064-2.852-1.064zm29.812 11.411h-10.567L146.8 38h-6.408L151.28 8.75h5.585L167.814 38h-6.409l-2.029-6.027zm-8.939-4.881h7.312l-3.676-10.95-3.636 10.95zm31.941-5.384c-.79-.108-1.486-.161-2.089-.161-2.196 0-3.636.743-4.319 2.23V38h-5.806V16.263h5.485l.16 2.592c1.165-1.996 2.779-2.993 4.842-2.993.643 0 1.245.087 1.808.26l-.081 5.586zm10.768-10.788v5.343h3.717v4.26h-3.717V31.37c0 .803.154 1.379.462 1.727.308.348.898.523 1.768.523.643 0 1.212-.047 1.708-.141v4.4c-1.139.348-2.31.522-3.516.522-4.071 0-6.147-2.056-6.227-6.168V20.522h-3.175v-4.259h3.175V10.92h5.805zM206.224 38h-5.825V16.263h5.825V38zm-6.167-27.362c0-.87.288-1.587.864-2.15.589-.562 1.386-.843 2.391-.843.991 0 1.781.281 2.37.844.589.562.884 1.279.884 2.15 0 .883-.301 1.607-.904 2.169-.589.563-1.373.844-2.35.844-.978 0-1.768-.281-2.371-.844-.589-.563-.884-1.286-.884-2.17zm22.741 21.355c0-.71-.355-1.265-1.065-1.667-.696-.415-1.821-.784-3.375-1.105-5.169-1.085-7.754-3.281-7.754-6.59 0-1.928.797-3.535 2.391-4.82 1.607-1.3 3.703-1.95 6.287-1.95 2.759 0 4.963.65 6.61 1.95 1.661 1.298 2.491 2.986 2.491 5.062h-5.806c0-.83-.268-1.514-.803-2.05-.536-.548-1.373-.823-2.512-.823-.977 0-1.734.221-2.27.663-.535.442-.803 1.004-.803 1.687 0 .643.301 1.166.904 1.567.616.389 1.647.73 3.094 1.025 1.446.281 2.665.603 3.656.964 3.067 1.125 4.6 3.074 4.6 5.846 0 1.982-.85 3.59-2.551 4.822-1.701 1.218-3.897 1.828-6.589 1.828-1.822 0-3.442-.322-4.862-.965-1.406-.656-2.511-1.546-3.315-2.671-.803-1.139-1.205-2.364-1.205-3.677h5.504c.054 1.032.436 1.822 1.145 2.37.71.55 1.661.824 2.853.824 1.112 0 1.949-.207 2.511-.622.576-.429.864-.985.864-1.668zm16.353-21.073v5.343h3.716v4.26h-3.716V31.37c0 .803.154 1.379.462 1.727.308.348.897.523 1.768.523.643 0 1.212-.047 1.707-.141v4.4c-1.138.348-2.31.522-3.515.522-4.072 0-6.148-2.056-6.228-6.168V20.522h-3.174v-4.259h3.174V10.92h5.806zm18.723 21.073c0-.71-.355-1.265-1.065-1.667-.696-.415-1.821-.784-3.375-1.105-5.169-1.085-7.754-3.281-7.754-6.59 0-1.928.797-3.535 2.39-4.82 1.608-1.3 3.704-1.95 6.288-1.95 2.759 0 4.962.65 6.61 1.95 1.66 1.298 2.491 2.986 2.491 5.062h-5.806c0-.83-.268-1.514-.804-2.05-.535-.548-1.372-.823-2.511-.823-.977 0-1.734.221-2.27.663-.536.442-.803 1.004-.803 1.687 0 .643.301 1.166.904 1.567.616.389 1.647.73 3.093 1.025 1.447.281 2.666.603 3.657.964 3.067 1.125 4.6 3.074 4.6 5.846 0 1.982-.85 3.59-2.551 4.822-1.701 1.218-3.898 1.828-6.59 1.828-1.821 0-3.442-.322-4.861-.965-1.406-.656-2.511-1.546-3.315-2.671-.803-1.139-1.205-2.364-1.205-3.677h5.504c.054 1.032.435 1.822 1.145 2.37.71.55 1.661.824 2.853.824 1.112 0 1.949-.207 2.511-.622.576-.429.864-.985.864-1.668z"/>
    <path fill="#000" d="M49.71 29.568l1.808-1.81-1.96-1.959c1.131-1.96.904-4.443-.751-6.1L41.35 12.24s-.075-.074-.151-.074V5.764c0-1.281-1.054-2.335-2.336-2.335-1.282 0-2.335 1.054-2.335 2.335v5.122l-2.561-2.561.678-.678-.376-.376-.678.678-.829-.829-1.809 1.809.83.828-6.102 6.102-1.658-1.658c-.752-.752-1.732-1.13-2.107-.678l-2.786 2.786c-.376.376-.074 1.356.678 2.108l.527.527c-1.732-.752-3.843-.376-5.273 1.054L4.518 30.542c-1.43 1.43-1.81 3.54-1.054 5.273l-2.561 2.56.302 1.96L0 41.54l.376.376.903-.903.225 1.507 4.142-4.142c1.808.903 4.067.678 5.648-.829l10.545-10.545c1.43-1.43 1.808-3.54 1.054-5.272l2.184 2.185c.074 1.13.604 2.258 1.43 3.087l7.457 7.457c1.96 1.96 5.199 1.96 7.156 0l1.808 1.809 1.809-1.809-1.809-1.808 4.82-4.82 1.962 1.735zM34.117 12.244l-5.95 5.95-2.034-2.034 6.101-6.1 2.034 2.033c-.077.074-.151.074-.151.15zM271.555 6.013h-1.991v5.416h-1.34V6.013h-1.964V4.93h5.295v1.084zm2.518-1.084l1.669 4.714 1.661-4.714h1.759v6.5h-1.344V9.652l.134-3.067-1.754 4.844h-.92l-1.75-4.84.134 3.063v1.777h-1.339v-6.5h1.75z"/>
</svg>
