<svg xmlns="http://www.w3.org/2000/svg" width="34" height="42" fill="none" viewBox="0 0 34 42">
    <path fill="#242424" d="M.126 23.474l4.505-8.354c.094-.174.234-.318.405-.416l8.087-4.63c-.955-.686-1.668-1.659-2.035-2.776-.368-1.118-.371-2.323-.01-3.443.36-1.12 1.068-2.096 2.019-2.79C14.047.374 15.194 0 16.37 0c1.177 0 2.323.373 3.274 1.066.951.692 1.658 1.669 2.019 2.789.361 1.12.357 2.325-.01 3.443-.367 1.117-1.08 2.09-2.035 2.777.094.054.18.122.253.203l5.783 6.585 5.043-.438c.241-.022.482.04.683.175.2.135.347.336.415.568l1.183 3.864c.046.15.058.308.035.463-.023.155-.08.303-.167.434-.088.13-.203.24-.338.32-.135.08-.286.128-.442.143l-8.392.778c-.157.014-.315-.008-.463-.062-.147-.055-.281-.142-.392-.254l-2.69-2.773v3.472l4.438 4.662c.12.124.206.276.254.441l3.097 10.982c.038.135.05.277.032.416-.018.14-.063.275-.133.397s-.164.228-.276.314c-.112.085-.24.147-.376.182l-3.604.929c-.249.065-.513.036-.742-.08-.23-.117-.408-.313-.502-.553l-3.923-9.861-1.314-1.373-2.45 5.534c-.069.154-.173.29-.304.396l-7.04 5.654c-.198.159-.447.241-.701.231-.255-.01-.497-.11-.683-.284l-2.848-2.672c-.106-.1-.19-.22-.248-.354-.057-.133-.086-.277-.085-.422 0-.146.032-.29.09-.422.06-.133.145-.252.252-.35l6.082-5.576 2.566-7.931v-5.37l-2.659 1.643-3.47 6.258c-.134.24-.356.417-.618.496-.263.079-.546.053-.79-.073L.572 24.907c-.124-.064-.234-.153-.324-.26-.09-.107-.157-.231-.199-.365-.042-.133-.056-.274-.043-.413.013-.14.054-.274.12-.398l.001.002zM16.372 2.123c-.682 0-1.349.202-1.916.58-.568.38-1.01.918-1.271 1.549-.262.63-.33 1.324-.197 1.993.133.67.462 1.284.944 1.767.482.482 1.097.81 1.766.944.67.133 1.363.065 1.994-.196.63-.261 1.169-.704 1.548-1.27.38-.568.582-1.235.582-1.918-.001-.914-.365-1.791-1.012-2.438-.646-.646-1.523-1.01-2.438-1.011zM10.78 33.109L5.33 38.103l1.352 1.267 6.123-4.918 2.357-5.328-2.033-2.834-2.06 6.365c-.056.174-.156.33-.29.454zm-6.546-8.686l3.108-5.603c.087-.158.214-.29.367-.386l4.505-2.787c.16-.1.344-.154.532-.158.188-.004.373.042.538.134.164.091.3.225.396.387.095.163.145.347.145.535v7.003l6.237 6.521c.094.098.168.213.218.338l3.658 9.19 1.657-.426-2.733-9.69-4.55-4.778c-.187-.196-.291-.457-.291-.727v-6.499c0-.21.063-.416.18-.59.118-.174.285-.31.48-.388.194-.08.408-.098.614-.055.206.043.394.147.54.297l4.153 4.28 6.595-.613-.553-1.805-4.724.41c-.165.016-.33-.009-.485-.07-.153-.062-.29-.16-.399-.284l-5.823-6.624h-4.646L6.35 16.386 2.49 23.53l1.742.894z"/>
</svg>
