<svg width="128" height="128" viewBox="0 0 128 128" fill="none" xmlns="http://www.w3.org/2000/svg">
<rect y="63.6396" width="90" height="90" rx="20" transform="rotate(-45 0 63.6396)" fill="#F6CB6A"/>
<g clip-path="url(#clip0)">
<path d="M90.9658 87.274L84.1747 55.2589C84.0841 54.8315 83.664 54.5583 83.2367 54.6492C82.8093 54.7399 82.5363 55.1597 82.627 55.5871L89.4104 87.5661H83.7288L83.0296 84.2701C82.8785 83.5574 82.24 83.04 81.5112 83.04H72.0257L80.2366 44.3317L81.9632 52.4574C82.0421 52.8294 82.3705 53.0844 82.7362 53.0844C82.7906 53.0844 82.8458 53.0788 82.9013 53.067C83.3286 52.9763 83.6016 52.5565 83.5109 52.1291L81.8509 44.3032C81.6797 43.4966 80.957 42.9112 80.1324 42.9112H69.3547L69.4623 42.4042C69.6473 41.5321 69.4316 40.6345 68.8704 39.9418C68.3092 39.249 67.4759 38.8517 66.5844 38.8517H60.1566C58.7755 38.8517 57.5651 39.8322 57.2787 41.1832L56.9121 42.9112H47.7018C46.9732 42.9112 46.3347 43.4285 46.1835 44.1413V44.1412L37.0341 87.274C36.9366 87.7341 37.0504 88.2076 37.3465 88.573C37.6426 88.9386 38.0822 89.1482 38.5525 89.1482H44.2952C45.0237 89.1482 45.6623 88.6309 45.8136 87.9181L46.5128 84.6221H56.3085L57.0087 87.9183C57.1601 88.6309 57.7986 89.1483 58.5271 89.1483H69.4726C70.2013 89.1483 70.8399 88.6309 70.9909 87.9182L71.6901 84.6222H81.4869L82.1861 87.9182C82.3372 88.6309 82.9757 89.1484 83.7044 89.1484H89.4472C89.9175 89.1484 90.3572 88.9387 90.6533 88.5733C90.9496 88.2076 91.0634 87.734 90.9658 87.274ZM58.8262 41.5115C58.9587 40.887 59.5182 40.4338 60.1565 40.4338H66.5843C66.9964 40.4338 67.3816 40.6175 67.641 40.9377C67.9005 41.2579 68.0002 41.6729 67.9146 42.076L67.7374 42.9113H58.5292L58.8262 41.5115ZM57.9258 84.6221H62.3469L61.7844 87.274C61.7638 87.3712 61.7546 87.4689 61.7526 87.5662H58.5514L57.9258 84.6221ZM69.4485 87.5661H63.3397L63.9022 84.9142C63.9999 84.4541 63.886 83.9806 63.5899 83.6151C63.2937 83.2496 62.8542 83.04 62.3839 83.04H46.4886C45.76 83.04 45.1213 83.5573 44.9703 84.27L44.2712 87.566H38.5894L47.7261 44.4933H78.5851L69.4485 87.5661Z" fill="black" fill-opacity="0.8"/>
<path d="M74.6793 47.6576C74.4077 47.3223 74.0044 47.1301 73.573 47.1301H51.0156C50.3472 47.1301 49.7614 47.6046 49.6228 48.2585L46.6656 62.1997L43.6976 76.1912C43.608 76.6134 43.7127 77.0477 43.9842 77.3829C44.2558 77.7181 44.659 77.9104 45.0905 77.9104H48.6717C49.1086 77.9104 49.4627 77.5562 49.4627 77.1194C49.4627 76.6825 49.1086 76.3283 48.6717 76.3283H45.2857L47.9776 63.6386C48.4164 63.9531 48.8492 64.3171 49.2841 64.7397C49.803 65.2438 50.2607 65.8079 50.7453 66.4051C51.7149 67.6003 52.7175 68.8362 54.2519 69.5774C56.355 70.5934 58.5935 70.3622 60.7582 70.1385C61.4896 70.063 62.1802 69.9917 62.8578 69.9683C65.2011 69.8872 67.0232 70.5812 68.4198 72.0846L67.5196 76.3283H51.836C51.3991 76.3283 51.045 76.6825 51.045 77.1194C51.045 77.5562 51.3991 77.9104 51.836 77.9104H67.6477C68.316 77.9104 68.9018 77.4359 69.0407 76.782L70.0501 72.0228L74.9658 48.8493C75.0553 48.4273 74.9509 47.9929 74.6793 47.6576ZM68.8043 70.2719C67.2962 69.0148 65.4225 68.3802 63.2116 68.3802C63.077 68.3802 62.9407 68.3826 62.8035 68.3873C62.0715 68.4125 61.3213 68.49 60.5957 68.565C58.5609 68.7752 56.6392 68.9738 54.9401 68.153C53.7236 67.5653 52.8736 66.5177 51.9737 65.4085C51.4816 64.8019 50.9726 64.1746 50.3866 63.6052C49.7108 62.9486 49.0342 62.4101 48.3314 61.9705L51.1438 48.7122H73.3777L68.8043 70.2719Z" fill="black" fill-opacity="0.8"/>
<path d="M54.7715 54.0156H67.7881C68.2251 54.0156 68.5791 53.6614 68.5791 53.2245C68.5791 52.7877 68.2251 52.4335 67.7881 52.4335H54.7715C54.3345 52.4335 53.9805 52.7877 53.9805 53.2245C53.9805 53.6614 54.3346 54.0156 54.7715 54.0156Z" fill="black" fill-opacity="0.8"/>
<path d="M53.998 57.496H60.4669C60.9038 57.496 61.2579 57.1419 61.2579 56.705C61.2579 56.2682 60.9038 55.914 60.4669 55.914H53.998C53.5611 55.914 53.207 56.2682 53.207 56.705C53.207 57.1419 53.5612 57.496 53.998 57.496Z" fill="black" fill-opacity="0.8"/>
<path d="M65.7578 62.084H62.3828C61.9459 62.084 61.5918 62.4382 61.5918 62.8751C61.5918 63.3119 61.9459 63.6661 62.3828 63.6661H65.7578C66.1948 63.6661 66.5488 63.3119 66.5488 62.8751C66.5488 62.4382 66.1948 62.084 65.7578 62.084Z" fill="black" fill-opacity="0.8"/>
</g>
<defs>
<clipPath id="clip0">
<rect width="54" height="54" fill="white" transform="translate(37 37)"/>
</clipPath>
</defs>
</svg>
