<svg width="60" height="60" viewBox="0 0 60 60" fill="none" xmlns="http://www.w3.org/2000/svg">
<path d="M23.9071 33.4166C22.2103 33.4166 20.5058 33.0579 18.9437 32.3276L14.5856 30.2904C14.1458 30.0849 13.9559 29.5617 14.1616 29.122C14.367 28.6822 14.89 28.4922 15.3299 28.6981L19.688 30.7353C22.8529 32.2145 26.7025 31.9047 29.4953 29.9465C32.794 27.6335 37.3319 27.2638 41.0561 29.0044L45.4147 31.0418C45.8545 31.2474 46.0443 31.7705 45.8388 32.2102C45.6331 32.65 45.1102 32.8398 44.6703 32.6342L40.3117 30.5969C37.1471 29.1177 33.2975 29.4273 30.5044 31.3856C28.5894 32.7286 26.2559 33.4166 23.9071 33.4166Z" fill="black" fill-opacity="0.8"/>
<path d="M23.9067 45.7842C22.2098 45.7842 20.5052 45.4253 18.9432 44.6952L14.5851 42.6582C14.1453 42.4525 13.9555 41.9294 14.161 41.4897C14.3666 41.0499 14.8896 40.8602 15.3295 41.0656L19.6876 43.1028C22.8521 44.5819 26.7017 44.2723 29.4949 42.3141C32.7936 40.0013 37.3315 39.6314 41.0557 41.3722L45.4142 43.4096C45.854 43.6151 46.0439 44.1383 45.8382 44.578C45.6327 45.0177 45.1098 45.2076 44.6699 45.0019L40.3113 42.9645C37.1464 41.4853 33.297 41.7951 30.504 43.7533C28.5888 45.0963 26.2554 45.7842 23.9067 45.7842Z" fill="black" fill-opacity="0.8"/>
<path d="M23.7883 25.8033C20.5936 25.8033 17.9946 23.2042 17.9946 20.0097C17.9946 16.8152 20.5937 14.2162 23.7883 14.2162C26.9829 14.2162 29.5818 16.8152 29.5818 20.0097C29.5818 23.2042 26.9829 25.8033 23.7883 25.8033ZM23.7883 15.9739C21.5629 15.9739 19.7524 17.7843 19.7524 20.0097C19.7524 22.2351 21.5629 24.0455 23.7883 24.0455C26.0135 24.0455 27.824 22.2351 27.824 20.0097C27.8241 17.7844 26.0135 15.9739 23.7883 15.9739Z" fill="black" fill-opacity="0.8"/>
<path d="M45.0419 38.9009C44.9173 38.9009 44.7908 38.8742 44.6703 38.818L40.3118 36.7807C39.4113 36.3598 38.4427 36.0789 37.4329 35.9456C36.9518 35.8821 36.6131 35.4405 36.6766 34.9592C36.7401 34.478 37.1819 34.1392 37.663 34.2029C38.8511 34.3598 39.9928 34.6912 41.0561 35.1882L45.4147 37.2256C45.8545 37.4312 46.0443 37.9543 45.8388 38.394C45.6895 38.7133 45.3727 38.9009 45.0419 38.9009Z" fill="black" fill-opacity="0.8"/>
<path d="M23.9071 39.6004C22.2103 39.6004 20.5058 39.2417 18.9437 38.5114L14.5856 36.4742C14.1458 36.2687 13.9559 35.7455 14.1616 35.3058C14.367 34.8659 14.89 34.6761 15.3299 34.8819L19.688 36.919C22.8529 38.3983 26.7025 38.0885 29.4953 36.1304C30.6535 35.3184 31.9653 34.7388 33.3944 34.4074C33.8672 34.2979 34.3394 34.5923 34.4491 35.065C34.5587 35.5379 34.2642 36.0101 33.7914 36.1198C32.583 36.4 31.4771 36.8878 30.5044 37.5697C28.5894 38.9124 26.2559 39.6004 23.9071 39.6004Z" fill="black" fill-opacity="0.8"/>
<path d="M48.9473 50.9983H11.0522C9.9215 50.9983 9.00146 50.0784 9.00146 48.9475V26.8398C9.00146 26.3542 9.39486 25.9608 9.88037 25.9608C10.3659 25.9608 10.7593 26.3542 10.7593 26.8398V48.9475C10.7593 49.1091 10.8906 49.2405 11.0522 49.2405H48.9473C49.1089 49.2405 49.2403 49.1091 49.2403 48.9475V11.0525C49.2403 10.8909 49.1089 10.7595 48.9473 10.7595H11.0522C10.8906 10.7595 10.7593 10.8909 10.7593 11.0525V23.0092C10.7593 23.4948 10.3659 23.8882 9.88037 23.8882C9.39486 23.8882 9.00146 23.4948 9.00146 23.0092V11.0525C9.00146 9.92175 9.9215 9.00171 11.0522 9.00171H48.9473C50.0781 9.00171 50.9981 9.92175 50.9981 11.0525V48.9475C50.9981 50.0784 50.0781 50.9983 48.9473 50.9983Z" fill="black" fill-opacity="0.8"/>
<path d="M57.9492 60H54.3022C53.3582 60 52.5404 59.361 52.3134 58.4461C52.0043 57.2 50.8902 56.3298 49.6042 56.3298C48.318 56.3298 47.2039 57.2 46.8949 58.4461C46.668 59.361 45.8502 60 44.9061 60H41.2327C40.2886 60 39.4709 59.361 39.2439 58.4461C38.9347 57.2 37.8209 56.3298 36.5347 56.3298C35.2485 56.3298 34.1345 57.2 33.8254 58.4461C33.5984 59.361 32.7806 60 31.8366 60H28.1632C27.2191 60 26.4014 59.361 26.1744 58.4461C25.8653 57.2 24.7512 56.3298 23.465 56.3298C22.1789 56.3298 21.065 57.2 20.7559 58.4461C20.5289 59.361 19.7112 60 18.7671 60H15.0936C14.1496 60 13.3318 59.361 13.1048 58.4461C12.7957 57.2 11.6816 56.3298 10.3956 56.3298C9.10957 56.3298 7.99547 57.2 7.68633 58.4461C7.45957 59.361 6.64184 60 5.69777 60H2.05078C0.920039 60 0 59.08 0 57.9492V54.3022C0 53.3582 0.639023 52.5404 1.55391 52.3134C2.79996 52.0043 3.6702 50.8902 3.6702 49.6042C3.6702 48.318 2.79996 47.2039 1.55391 46.8949C0.639023 46.6679 0 45.8502 0 44.9061V41.2327C0 40.2886 0.639023 39.4709 1.55391 39.2439C2.79996 38.9347 3.6702 37.8206 3.6702 36.5346C3.6702 35.2486 2.79996 34.1345 1.55391 33.8254C0.639023 33.5985 0 32.7806 0 31.8367V28.1632C0 27.2193 0.639023 26.4015 1.55391 26.1745C2.79996 25.8654 3.6702 24.7513 3.6702 23.4653C3.6702 22.1791 2.79996 21.0652 1.55391 20.756C0.638906 20.5289 0 19.7111 0 18.7673V15.0939C0 14.1498 0.639023 13.3321 1.55391 13.1051C2.79996 12.7959 3.6702 11.6818 3.6702 10.3958C3.6702 9.1098 2.79996 7.99559 1.55391 7.68656C0.639023 7.45957 0 6.64184 0 5.69777V2.05078C0 0.920039 0.920039 0 2.05078 0H5.69777C6.64184 0 7.45957 0.639023 7.68656 1.55391C7.9957 2.79996 9.1098 3.6702 10.3958 3.6702C11.6818 3.6702 12.7959 2.79996 13.1051 1.55391C13.3321 0.639023 14.1498 0 15.0939 0H18.7673C19.7114 0 20.5291 0.639023 20.7561 1.55391C20.9208 2.21789 21.325 2.7975 21.8939 3.18621C22.2948 3.45996 22.3978 4.00676 22.1241 4.40766C21.8503 4.80855 21.3034 4.91168 20.9026 4.63781C19.9766 4.00547 19.3186 3.06059 19.05 1.97707C19.018 1.84805 18.9016 1.75793 18.7673 1.75793H15.0939C14.9596 1.75793 14.8432 1.84805 14.8112 1.97719C14.3072 4.00898 12.4916 5.42801 10.3958 5.42801C8.30004 5.42801 6.48445 4.00887 5.98043 1.97707C5.94844 1.84793 5.83219 1.75781 5.69777 1.75781H2.05078C1.88918 1.75781 1.75781 1.88918 1.75781 2.05078V5.69777C1.75781 5.83207 1.84793 5.94844 1.97707 5.98043C4.00887 6.48445 5.42789 8.30004 5.42789 10.3958C5.42789 12.4916 4.00887 14.3072 1.97707 14.8112C1.84793 14.8432 1.75781 14.9596 1.75781 15.0939V18.7673C1.75781 18.9016 1.84793 19.018 1.97719 19.05C4.00887 19.554 5.42789 21.3696 5.42789 23.4654C5.42789 25.5612 4.00887 27.3768 1.97707 27.8808C1.84793 27.9128 1.75781 28.0289 1.75781 28.1632V31.8367C1.75781 31.971 1.84793 32.0873 1.97707 32.1193C4.00887 32.6234 5.42789 34.4389 5.42789 36.5347C5.42789 38.6305 4.00887 40.4461 1.97707 40.9501C1.84793 40.9821 1.75781 41.0985 1.75781 41.2328V44.9062C1.75781 45.0407 1.84793 45.1569 1.97707 45.1889C4.00887 45.6929 5.42789 47.5085 5.42789 49.6043C5.42789 51.7001 4.00887 53.5157 1.97707 54.0197C1.84793 54.0516 1.75781 54.1678 1.75781 54.3022V57.9492C1.75781 58.1108 1.88918 58.2422 2.05078 58.2422H5.69777C5.83207 58.2422 5.94844 58.152 5.98043 58.0229C6.48445 55.9911 8.30004 54.5721 10.3958 54.5721C12.4916 54.5721 14.3072 55.9911 14.8112 58.0229C14.8432 58.1521 14.9596 58.2422 15.0939 58.2422H18.7673C18.9016 58.2422 19.018 58.152 19.05 58.0229C19.554 55.9911 21.3696 54.5721 23.4653 54.5721C25.5611 54.5721 27.3768 55.9911 27.8808 58.0229C27.9129 58.1521 28.0291 58.2422 28.1634 58.2422H31.8368C31.9711 58.2422 32.0875 58.152 32.1195 58.0229C32.6235 55.9911 34.4392 54.5721 36.535 54.5721C38.6306 54.5721 40.4462 55.9911 40.9502 58.0229C40.9822 58.1521 41.0986 58.2422 41.2329 58.2422H44.9064C45.0408 58.2422 45.157 58.152 45.189 58.0229C45.693 55.9911 47.5086 54.5721 49.6044 54.5721C51.7002 54.5721 53.5158 55.9911 54.0198 58.0229C54.0518 58.1521 54.1682 58.2422 54.3025 58.2422H57.9492C58.1108 58.2422 58.2422 58.1108 58.2422 57.9492V54.3022C58.2422 54.1678 58.152 54.0516 58.0229 54.0196C55.9911 53.5155 54.5721 51.7 54.5721 49.6042C54.5721 47.5084 55.9911 45.6928 58.0229 45.1888C58.1521 45.1568 58.2422 45.0404 58.2422 44.9061V41.2327C58.2422 41.0984 58.152 40.982 58.0229 40.95C55.9911 40.446 54.5721 38.6304 54.5721 36.5346C54.5721 34.4388 55.9911 32.6232 58.0229 32.1192C58.1521 32.0872 58.2422 31.9709 58.2422 31.8366V28.1631C58.2422 28.0288 58.152 27.9125 58.0229 27.8805C55.9911 27.3765 54.5721 25.5609 54.5721 23.4652C54.5721 21.3694 55.9911 19.5538 58.0229 19.0498C58.1521 19.0178 58.2422 18.9014 58.2422 18.7671V15.0936C58.2422 14.9593 58.152 14.843 58.0229 14.811C55.9911 14.307 54.5721 12.4914 54.5721 10.3956C54.5721 8.2998 55.9911 6.48422 58.0229 5.9802C58.152 5.94844 58.2422 5.83219 58.2422 5.69777V2.05078C58.2422 1.88918 58.1108 1.75781 57.9492 1.75781H54.3022C54.1678 1.75781 54.0516 1.84793 54.0196 1.97707C53.5155 4.00887 51.7 5.42789 49.6042 5.42789C47.5084 5.42789 45.6928 4.00887 45.1888 1.97707C45.1568 1.84793 45.0404 1.75781 44.9061 1.75781H41.2327C41.0984 1.75781 40.982 1.84793 40.95 1.97707C40.446 4.00887 38.6304 5.42789 36.5347 5.42789C34.4389 5.42789 32.6232 4.00887 32.1192 1.97707C32.0872 1.84793 31.9709 1.75781 31.8366 1.75781H28.1632C28.0289 1.75781 27.9125 1.84793 27.8805 1.97707C27.5781 3.19629 26.7727 4.24629 25.6709 4.85813C25.2464 5.09402 24.7113 4.94086 24.4759 4.51641C24.2402 4.09207 24.3933 3.55699 24.8176 3.32145C25.4945 2.94551 25.9891 2.30133 26.1745 1.55391C26.4015 0.639023 27.2193 0 28.1633 0H31.8367C32.7807 0 33.5985 0.639023 33.8255 1.55391C34.1346 2.79996 35.2487 3.6702 36.5348 3.6702C37.821 3.6702 38.9348 2.79996 39.244 1.55391C39.4709 0.639023 40.2887 0 41.2328 0H44.9062C45.8503 0 46.668 0.639023 46.895 1.55391C47.2042 2.79996 48.3183 3.6702 49.6043 3.6702C50.8904 3.6702 52.0044 2.79996 52.3136 1.55391C52.5404 0.639023 53.3582 0 54.3022 0H57.9492C59.08 0 60 0.920039 60 2.05078V5.69777C60 6.64184 59.361 7.45957 58.4461 7.68656C57.2 7.9957 56.3298 9.1098 56.3298 10.3958C56.3298 11.6818 57.2 12.7959 58.4461 13.1051C59.361 13.3321 60 14.1498 60 15.0939V18.7673C60 19.7112 59.3611 20.5289 58.4462 20.7561C57.2 21.0653 56.3298 22.1794 56.3298 23.4654C56.3298 24.7515 57.2 25.8655 58.4461 26.1746C59.361 26.4016 60 27.2194 60 28.1633V31.8368C60 32.7809 59.361 33.5986 58.4461 33.8256C57.2 34.1347 56.3298 35.2488 56.3298 36.5348C56.3298 37.8209 57.2 38.935 58.4461 39.2441C59.361 39.4711 60 40.2888 60 41.2329V44.9064C60 45.8504 59.361 46.6682 58.4461 46.8952C57.2 47.2043 56.3298 48.3184 56.3298 49.6044C56.3298 50.8905 57.2 52.0045 58.4461 52.3137C59.361 52.5405 60 53.3584 60 54.3025V57.9492C60 59.08 59.08 60 57.9492 60Z" fill="black" fill-opacity="0.8"/>
</svg>
