<svg width="128" height="128" viewBox="0 0 128 128" fill="none" xmlns="http://www.w3.org/2000/svg">
<rect y="63.6396" width="90" height="90" rx="20" transform="rotate(-45 0 63.6396)" fill="#F6CB6A"/>
<path d="M41.4214 44.8662C42.4752 44.8662 42.4769 43.2842 41.4214 43.2842C40.3675 43.2842 40.3659 44.8662 41.4214 44.8662Z" fill="black" fill-opacity="0.8"/>
<path d="M44.2517 44.8662C45.3056 44.8662 45.3072 43.2842 44.2517 43.2842C43.1979 43.2842 43.1962 44.8662 44.2517 44.8662Z" fill="black" fill-opacity="0.8"/>
<path d="M47.0816 44.8662C48.1354 44.8662 48.1371 43.2842 47.0816 43.2842C46.0277 43.2842 46.0259 44.8662 47.0816 44.8662Z" fill="black" fill-opacity="0.8"/>
<path d="M90.209 40.2695H37.791C37.3542 40.2695 37 40.6237 37 41.0605V86.9395C37 87.3763 37.3542 87.7305 37.791 87.7305H90.209C90.6458 87.7305 91 87.3763 91 86.9395V41.0605C91 40.6237 90.6458 40.2695 90.209 40.2695ZM38.582 86.1484V47.8809H51.7368C52.7267 47.8809 52.7718 46.2989 51.7368 46.2989H38.582V41.8516H89.418V46.2989H55.9503C54.9605 46.2989 54.9153 47.8809 55.9503 47.8809H89.418V86.1484H38.582Z" fill="black" fill-opacity="0.8"/>
<path d="M49.6313 51.4756C45.6548 51.4756 42.4197 54.7107 42.4197 58.6872V81.4023C42.4197 81.8392 42.7738 82.1934 43.2107 82.1934H56.0519C56.4888 82.1934 56.843 81.8392 56.843 81.4023C56.843 73.8307 56.843 66.2587 56.843 58.6872C56.843 54.7107 53.6078 51.4756 49.6313 51.4756ZM49.6313 53.0576C53.9118 53.0159 56.6752 57.8173 54.5162 61.4833C54.0109 60.6226 53.2842 59.9067 52.409 59.4139C53.2427 57.49 51.7362 55.2258 49.6313 55.2595C47.527 55.2256 46.0197 57.4902 46.8536 59.4137C45.978 59.9061 45.2515 60.6216 44.7463 61.4829C42.5871 57.8162 45.3523 53.0155 49.6313 53.0576ZM48.2075 58.2653C48.2075 57.4802 48.8462 56.8415 49.6313 56.8415C51.5203 56.9198 51.5196 59.6112 49.6313 59.6892C48.8939 59.6892 48.2075 58.9939 48.2075 58.2653ZM47.8434 60.6803C48.8852 61.4537 50.3761 61.4543 51.419 60.6803C52.3336 61.1259 53.05 61.8984 53.4247 62.8432C51.3056 64.7792 47.9571 64.7795 45.8376 62.8432C46.2125 61.8973 46.9285 61.1257 47.8434 60.6803ZM55.2609 80.6113H44.0017V63.1897C46.8058 66.7732 52.4572 66.7719 55.2609 63.1897V80.6113Z" fill="black" fill-opacity="0.8"/>
<path d="M52.1067 68.8328H47.1559C46.1661 68.8328 46.1209 70.4148 47.1559 70.4148H52.1067C53.0966 70.4148 53.1417 68.8328 52.1067 68.8328Z" fill="black" fill-opacity="0.8"/>
<path d="M52.1067 72.1368H47.1559C46.1661 72.1368 46.1209 73.7189 47.1559 73.7189H52.1067C53.0966 73.7189 53.1417 72.1368 52.1067 72.1368Z" fill="black" fill-opacity="0.8"/>
<path d="M49.9973 75.4409H47.1559C46.1661 75.4409 46.1209 77.0229 47.1559 77.0229H49.9973C50.9872 77.0229 51.0323 75.4409 49.9973 75.4409Z" fill="black" fill-opacity="0.8"/>
<path d="M84.3655 54.6814H60.2361C59.7992 54.6814 59.4451 55.0356 59.4451 55.4724V69.5923C59.4451 70.0291 59.7992 70.3833 60.2361 70.3833H84.3655C84.8024 70.3833 85.1565 70.0291 85.1565 69.5923V55.4724C85.1565 55.0356 84.8024 54.6814 84.3655 54.6814ZM83.5745 68.8012H61.0271V56.2634H83.5745V68.8012Z" fill="black" fill-opacity="0.8"/>
<path d="M84.3655 72.6818H68.254C67.2642 72.6818 67.2191 74.2638 68.254 74.2638H83.5745V80.6114H61.0271V74.2638H64.0364C65.0263 74.2638 65.0714 72.6818 64.0364 72.6818H60.2361C59.7992 72.6818 59.4451 73.0359 59.4451 73.4728V81.4024C59.4451 81.8393 59.7992 82.1935 60.2361 82.1935H84.3655C84.8024 82.1935 85.1565 81.8393 85.1565 81.4024V73.4728C85.1565 73.0359 84.8024 72.6818 84.3655 72.6818Z" fill="black" fill-opacity="0.8"/>
<path d="M84.3656 51.4756H79.9789C78.989 51.4756 78.9439 53.0576 79.9789 53.0576H84.3656C85.3556 53.0576 85.4006 51.4756 84.3656 51.4756Z" fill="black" fill-opacity="0.8"/>
<path d="M62.8926 77.4297C62.8926 77.8665 63.2467 78.2207 63.6836 78.2207H75.2148C76.2046 78.2207 76.2498 76.6387 75.2148 76.6387H63.6836C63.2467 76.6387 62.8926 76.9928 62.8926 77.4297Z" fill="black" fill-opacity="0.8"/>
<path d="M63.6837 60.021H75.2149C76.2047 60.021 76.2499 58.439 75.2149 58.439H63.6837C62.6939 58.439 62.6487 60.021 63.6837 60.021Z" fill="black" fill-opacity="0.8"/>
<path d="M63.6837 66.6257H75.2149C76.2047 66.6257 76.2499 65.0437 75.2149 65.0437H63.6837C62.6939 65.0437 62.6487 66.6257 63.6837 66.6257Z" fill="black" fill-opacity="0.8"/>
<path d="M63.6837 63.3234H79.979C80.9688 63.3234 81.0139 61.7413 79.979 61.7413H63.6837C62.6939 61.7413 62.6487 63.3234 63.6837 63.3234Z" fill="black" fill-opacity="0.8"/>
</svg>
