<svg width="128" height="128" viewBox="0 0 128 128" fill="none" xmlns="http://www.w3.org/2000/svg">
<rect y="63.6396" width="90" height="90" rx="20" transform="rotate(-45 0 63.6396)" fill="#F6CB6A"/>
<path d="M77.1061 72.6866H61.528C61.0911 72.6866 60.7368 73.0409 60.7368 73.4779C60.7368 73.9148 61.0911 74.2691 61.528 74.2691H77.1061C77.5432 74.2691 77.8973 73.9148 77.8973 73.4779C77.8973 73.0409 77.5432 72.6866 77.1061 72.6866Z" fill="black" fill-opacity="0.8"/>
<path d="M77.1061 77.0231H61.528C61.0911 77.0231 60.7368 77.3773 60.7368 77.8143C60.7368 78.2513 61.0911 78.6055 61.528 78.6055H77.1061C77.5432 78.6055 77.8973 78.2514 77.8973 77.8143C77.8973 77.3772 77.5432 77.0231 77.1061 77.0231Z" fill="black" fill-opacity="0.8"/>
<path d="M77.8973 52.3792C77.8973 50.7334 76.5583 49.3945 74.9125 49.3945H63.7214C62.0756 49.3945 60.7367 50.7335 60.7367 52.3792V53.0681C60.7367 53.5052 61.0909 53.8593 61.5279 53.8593C61.9649 53.8593 62.3191 53.5051 62.3191 53.0681V52.3792C62.3191 51.606 62.9481 50.9771 63.7213 50.9771H74.9124C75.6856 50.9771 76.3146 51.6061 76.3146 52.3792V63.9999C75.3757 62.8305 74.154 61.9101 72.7515 61.3317C73.2855 60.617 73.602 59.7309 73.602 58.7721C73.602 56.4093 71.6796 54.487 69.3168 54.487C66.954 54.487 65.0317 56.4094 65.0317 58.7721C65.0317 59.7308 65.3482 60.6169 65.8822 61.3317C64.4797 61.9101 63.2579 62.8305 62.319 63.9999V56.7674C62.319 56.3304 61.9648 55.9762 61.5278 55.9762C61.0908 55.9762 60.7366 56.3305 60.7366 56.7674V66.2561C60.7366 67.902 62.0756 69.2409 63.7213 69.2409H74.9124C76.5583 69.2409 77.8972 67.9019 77.8972 66.2561V52.3792H77.8973ZM69.317 56.0695C70.8073 56.0695 72.0196 57.2819 72.0196 58.7722C72.0196 60.2625 70.8071 61.4748 69.317 61.4748C67.8267 61.4748 66.6143 60.2625 66.6143 58.7722C66.6143 57.2819 67.8267 56.0695 69.317 56.0695ZM74.9125 67.6582H63.7214C63.1652 67.6582 62.685 67.3319 62.4586 66.8613C63.3098 64.7496 65.0721 63.1577 67.2542 62.5267C67.8666 62.8645 68.5696 63.0572 69.317 63.0572C70.0644 63.0572 70.7675 62.8644 71.3798 62.5267C73.562 63.1576 75.3243 64.7495 76.1755 66.8613C75.949 67.3319 75.4688 67.6582 74.9125 67.6582Z" fill="black" fill-opacity="0.8"/>
<path d="M85.5468 81.6541C85.9839 81.6541 86.338 81.2999 86.338 80.8629V40.0281C86.338 38.3584 84.9796 37 83.3098 37H48.5676C46.8978 37 45.5394 38.3584 45.5394 40.0281V42.6071H44.335C42.8612 42.6071 41.6621 43.8062 41.6621 45.2799C41.6621 46.7537 42.8612 47.9528 44.335 47.9528H45.5394V51.967H44.335C42.8612 51.967 41.6621 53.166 41.6621 54.6399C41.6621 56.1137 42.8612 57.3128 44.335 57.3128H45.5394V61.3269H44.335C42.8612 61.3269 41.6621 62.526 41.6621 63.9998C41.6621 65.4736 42.8612 66.6727 44.335 66.6727H45.5394V70.6868H44.335C42.8612 70.6868 41.6621 71.8859 41.6621 73.3597C41.6621 74.8335 42.8612 76.0326 44.335 76.0326H45.5394V80.0468H44.335C42.8612 80.0468 41.6621 81.2458 41.6621 82.7196C41.6621 84.1934 42.8612 85.3924 44.335 85.3924H45.5394V87.9715C45.5394 89.6411 46.8978 90.9996 48.5676 90.9996H83.3098C84.9796 90.9996 86.338 89.6411 86.338 87.9715V84.5696C86.338 84.1325 85.9839 83.7783 85.5468 83.7783C85.1098 83.7783 84.7556 84.1326 84.7556 84.5696V87.9719C84.7556 88.769 84.1071 89.4175 83.3098 89.4175H55.1874V38.5826H83.3097C84.1068 38.5826 84.7555 39.231 84.7555 40.0282V80.8629C84.7555 81.2999 85.1098 81.6541 85.5468 81.6541ZM44.335 46.3704C43.7338 46.3704 43.2447 45.8812 43.2447 45.28C43.2447 44.6789 43.7338 44.1898 44.335 44.1898H48.3263C48.9274 44.1898 49.4166 44.6789 49.4166 45.28C49.4166 45.8812 48.9274 46.3704 48.3263 46.3704H44.335ZM44.335 55.7304C43.7338 55.7304 43.2447 55.2412 43.2447 54.6401C43.2447 54.0389 43.7338 53.5497 44.335 53.5497H46.3286C46.3293 53.5497 46.3299 53.5498 46.3306 53.5498C46.3312 53.5498 46.3319 53.5497 46.3326 53.5497H48.3262C48.9273 53.5497 49.4165 54.0389 49.4165 54.6401C49.4165 55.2412 48.9273 55.7304 48.3262 55.7304H44.335ZM44.335 65.0903C43.7338 65.0903 43.2447 64.6012 43.2447 64C43.2447 63.3988 43.7338 62.9097 44.335 62.9097H48.3263C48.9274 62.9097 49.4166 63.3988 49.4166 64C49.4166 64.6012 48.9274 65.0903 48.3263 65.0903H44.335ZM44.335 74.4504C43.7338 74.4504 43.2447 73.9612 43.2447 73.36C43.2447 72.7589 43.7338 72.2697 44.335 72.2697H48.3263C48.9274 72.2697 49.4166 72.7589 49.4166 73.36C49.4166 73.9612 48.9274 74.4504 48.3263 74.4504H44.335ZM44.335 83.8102C43.7338 83.8102 43.2447 83.3211 43.2447 82.72C43.2447 82.1188 43.7338 81.6296 44.335 81.6296H48.3263C48.9274 81.6296 49.4166 82.1188 49.4166 82.72C49.4166 83.3211 48.9274 83.8102 48.3263 83.8102H44.335ZM53.605 89.4174H48.5676C47.7704 89.4174 47.1219 88.769 47.1219 87.9718V85.3928H48.3263C49.8001 85.3928 50.9992 84.1937 50.9992 82.72C50.9992 81.2461 49.8001 80.0471 48.3263 80.0471H47.1219V76.0329H48.3263C49.8001 76.0329 50.9992 74.8339 50.9992 73.36C50.9992 71.8862 49.8001 70.6871 48.3263 70.6871H47.1219V66.673H48.3263C49.8001 66.673 50.9992 65.4739 50.9992 64.0001C50.9992 62.5263 49.8001 61.3272 48.3263 61.3272H47.1219V57.3131H48.3263C49.8001 57.3131 50.9992 56.114 50.9992 54.6402C50.9992 53.1664 49.8001 51.9673 48.3263 51.9673H47.1219V47.9531H48.3263C49.8001 47.9531 50.9992 46.7541 50.9992 45.2802C50.9992 43.8065 49.8001 42.6075 48.3263 42.6075H47.1219V40.0281C47.1219 39.231 47.7704 38.5825 48.5676 38.5825H53.605V89.4174Z" fill="black" fill-opacity="0.8"/>
</svg>
