<svg width="128" height="128" viewBox="0 0 128 128" fill="none" xmlns="http://www.w3.org/2000/svg">
<rect y="63.6396" width="90" height="90" rx="20" transform="rotate(-45 0 63.6396)" fill="#F6CB6A"/>
<path d="M67.1086 55.9945C68.4392 55.9945 69.5218 54.9119 69.5218 53.5813C69.5218 52.2507 68.4392 51.168 67.1086 51.168H64.9902C63.6595 51.168 62.5769 52.2507 62.5769 53.5813C62.5769 54.9119 63.6595 55.9945 64.9902 55.9945H67.1086ZM64.1589 53.5813C64.1589 53.1229 64.5319 52.7501 64.9902 52.7501H67.1086C67.5669 52.7501 67.9398 53.123 67.9398 53.5813C67.9398 54.0396 67.5669 54.4125 67.1086 54.4125H64.9902C64.5319 54.4125 64.1589 54.0396 64.1589 53.5813Z" fill="black" fill-opacity="0.8"/>
<path d="M56.7247 81.2529C59.0645 82.2388 61.5278 82.7321 63.9925 82.7321C66.382 82.7321 68.7728 82.2684 71.0527 81.3402C75.684 79.4549 79.3039 75.8787 81.2458 71.2706C83.1875 66.6625 83.2185 61.5741 81.333 56.9427C77.6051 47.7849 67.3568 43.0946 58.0012 46.265C57.5875 46.4052 57.3658 46.8543 57.5059 47.268C57.6462 47.6817 58.0952 47.9036 58.509 47.7633C66.9225 44.9124 76.1257 49.0072 79.6824 57.1023H75.7579C75.321 57.1023 74.9669 57.4564 74.9669 57.8933C74.9669 58.3301 75.321 58.6843 75.7579 58.6843H80.2876C81.5742 62.6076 81.4068 66.8141 79.7879 70.6563C79.2948 71.8263 78.6832 72.9234 77.9668 73.9353C77.965 73.9377 77.963 73.9398 77.9613 73.9422C77.2738 74.9055 76.2352 74.9943 75.4929 74.7565C74.7408 74.5157 73.9371 73.831 73.9371 72.6316V67.502C73.9371 65.4236 72.2463 63.7329 70.168 63.7329C68.7761 63.7329 67.6437 62.6004 67.6437 61.2086C67.6437 59.8167 68.776 58.6843 70.168 58.6843H72.282C72.7189 58.6843 73.073 58.3301 73.073 57.8933C73.073 57.4564 72.7189 57.1023 72.282 57.1023H70.168C67.9038 57.1023 66.0617 58.9444 66.0617 61.2086C66.0617 63.4728 67.9038 65.3149 70.168 65.3149C71.374 65.3149 72.3551 66.2961 72.3551 67.502V72.6316C72.3551 74.3211 73.3973 75.7465 75.0104 76.2631C75.2752 76.3479 75.5416 76.4029 75.8063 76.4308C74.2755 77.8849 72.4706 79.0548 70.4562 79.8749C67.8682 80.9285 65.1243 81.327 62.4195 81.0745V78.2416C62.4195 78.0879 62.4793 77.9434 62.588 77.8348L66.3639 74.0589C66.8574 73.5654 67.1292 72.9093 67.1292 72.2114V69.6402C67.1292 68.6394 66.4498 67.777 65.4768 67.5428L56.8582 65.468C56.2116 65.3122 55.5408 65.4592 55.0182 65.8708C54.4957 66.2826 54.196 66.9002 54.196 67.5654V72.9075C54.196 73.6054 54.4678 74.2615 54.9613 74.755L57.0771 76.8708C57.1858 76.9795 57.2457 77.1239 57.2457 77.2776V79.7542C53.7996 78.2786 50.9916 75.7738 49.1529 72.5761C49.1727 72.5726 49.1925 72.5697 49.2123 72.5657C50.2735 72.3513 50.9866 71.4804 50.9866 70.3985V68.4575C50.9866 66.885 51.8319 65.4186 53.1926 64.6303L59.4702 60.9939C60.7945 60.2269 61.6171 58.7997 61.6171 57.2692C61.6171 55.7728 60.822 54.3619 59.5418 53.5869L56.0425 51.4686C55.1507 50.9289 54.1657 50.6756 53.1949 50.6874C53.9103 50.1072 54.6804 49.579 55.503 49.1113C55.8828 48.8954 56.0155 48.4125 55.7995 48.0327C55.5837 47.6529 55.1012 47.5201 54.7209 47.736C50.8053 49.9621 47.8238 53.5404 46.3258 57.8115C44.8144 62.1207 44.9313 66.8256 46.6549 71.0596C48.5403 75.6912 52.1165 79.3112 56.7247 81.2529ZM56.0798 73.6365C55.885 73.4418 55.7778 73.183 55.7778 72.9076V67.5655C55.7778 67.3226 55.9152 67.1781 55.9971 67.1136C56.079 67.049 56.2524 66.9494 56.4877 67.0061L65.1063 69.081C65.3658 69.1434 65.547 69.3733 65.547 69.6403V72.2115C65.547 72.4868 65.4397 72.7456 65.245 72.9404L61.4692 76.7163C61.0618 77.1237 60.8374 77.6655 60.8374 78.2418V80.8514C60.1614 80.7233 59.4904 80.5541 58.8274 80.3431V77.2777C58.8274 76.7015 58.603 76.1597 58.1956 75.7522L56.0798 73.6365ZM50.1926 53.8436C50.1993 53.8354 50.2063 53.8278 50.2127 53.8192C51.3866 52.2325 53.5406 51.8038 55.2232 52.8223L58.7224 54.9406C59.532 55.4307 60.0349 56.323 60.0349 57.2695C60.0349 58.2375 59.5145 59.1401 58.6771 59.6253L52.3994 63.2616C50.5519 64.3317 49.4043 66.3228 49.4043 68.4578V70.3987C49.4043 70.8759 49.0174 70.9912 48.8988 71.0152C48.7808 71.039 48.3817 71.0827 48.1976 70.6453C48.196 70.6416 48.194 70.6382 48.1924 70.6345C48.1685 70.5775 48.1437 70.5209 48.1204 70.4635C45.8172 64.8058 46.7664 58.5208 50.1926 53.8436Z" fill="black" fill-opacity="0.8"/>
<path d="M91 64C91 58.0982 88.3749 52.5331 83.5952 48.2698C83.7526 47.9058 83.8403 47.5048 83.8403 47.0837C83.8403 45.4299 82.4948 44.0845 80.8411 44.0845C80.4222 44.0845 80.0232 44.1711 79.6608 44.327C75.4064 39.5972 69.8668 37 64 37C58.1316 37 52.5933 39.5967 48.3391 44.3269C47.9767 44.1711 47.5778 44.0845 47.159 44.0845C45.5052 44.0845 44.1599 45.4299 44.1599 47.0837C44.1599 47.5049 44.2475 47.906 44.405 48.2701C39.6255 52.5333 37 58.0992 37 64C37 69.9026 39.6249 75.4671 44.4046 79.7303C44.2473 80.0943 44.1596 80.4952 44.1596 80.9163C44.1596 82.5701 45.5051 83.9155 47.1587 83.9155C47.5777 83.9155 47.9767 83.8289 48.3392 83.673C52.5936 88.4026 58.1336 91 64 91C69.8669 91 75.4066 88.4029 79.6608 83.6731C80.0233 83.8289 80.4222 83.9155 80.841 83.9155C82.4948 83.9155 83.8401 82.5701 83.8401 80.9163C83.8401 80.4953 83.7525 80.0944 83.5951 79.7305C88.3757 75.4673 91 69.9054 91 64ZM89.418 64C89.418 68.8327 87.4981 73.4268 83.9645 77.167C85.8647 73.1589 86.8604 68.6564 86.8604 64C86.8604 59.3447 85.8649 54.8421 83.9652 50.834C87.4978 54.5747 89.418 59.1706 89.418 64ZM82.2582 47.0837C82.2582 47.8651 81.6226 48.5008 80.8411 48.5008C80.0597 48.5008 79.424 47.8651 79.424 47.0837C79.424 46.3022 80.0596 45.6666 80.8411 45.6666C81.6226 45.6666 82.2582 46.3022 82.2582 47.0837ZM77.1661 44.0349C73.1577 42.1352 68.6537 41.1396 64 41.1396C59.3474 41.1396 54.8419 42.1359 50.8329 44.0359C54.5739 40.5027 59.1713 38.582 64 38.582C68.827 38.582 73.425 40.5025 77.1661 44.0349ZM47.1589 45.6666C47.9403 45.6666 48.576 46.3022 48.576 47.0837C48.576 47.8651 47.9404 48.5008 47.1589 48.5008C46.3774 48.5008 45.7418 47.8651 45.7418 47.0837C45.7418 46.3022 46.3774 45.6666 47.1589 45.6666ZM38.582 64C38.582 59.1707 40.5028 54.5735 44.0363 50.8324C42.2027 54.7025 41.2082 59.0428 41.143 63.5274C41.1366 63.9642 41.4856 64.3235 41.9224 64.3298C41.9263 64.3298 41.9302 64.3299 41.9341 64.3299C42.3657 64.3299 42.7186 63.9832 42.7248 63.5504C42.7957 58.6764 44.02 53.9876 46.2695 49.9483C46.5506 50.0357 46.8493 50.0829 47.1589 50.0829C48.8126 50.0829 50.1581 48.7375 50.1581 47.0837C50.1581 46.7847 50.1135 46.4959 50.0316 46.2231C54.1819 43.9312 58.9983 42.7217 64 42.7217C69.0033 42.7217 73.8181 43.9312 77.9683 46.2235C77.8864 46.4961 77.8419 46.7848 77.8419 47.0837C77.8419 48.7374 79.1874 50.0829 80.8411 50.0829C81.1506 50.0829 81.4493 50.0357 81.7304 49.9483C84.0529 54.1175 85.2783 58.9613 85.2783 64.0001C85.2783 69.0397 84.0529 73.8828 81.7304 78.0519C81.4493 77.9645 81.1506 77.9173 80.8411 77.9173C79.1874 77.9173 77.8419 79.2627 77.8419 80.9165C77.8419 81.2155 77.8865 81.5042 77.9684 81.777C73.8181 84.0689 69.0018 85.2783 64 85.2783C58.9961 85.2783 54.182 84.0689 50.0317 81.7767C50.1136 81.504 50.1581 81.2153 50.1581 80.9165C50.1581 79.2627 48.8126 77.9173 47.1589 77.9173C46.8496 77.9173 46.5511 77.9645 46.2703 78.0517C44.416 74.719 43.239 70.8823 42.8597 66.9111C42.8182 66.4762 42.4316 66.1565 41.9971 66.1989C41.5623 66.2404 41.2434 66.6267 41.2849 67.0615C41.6237 70.6101 42.5691 74.0598 44.0419 77.1739C40.5047 73.4319 38.582 68.8333 38.582 64ZM45.7418 80.9163C45.7418 80.1349 46.3774 79.4993 47.1589 79.4993C47.9403 79.4993 48.576 80.135 48.576 80.9163C48.576 81.6977 47.9404 82.3334 47.1589 82.3334C46.3774 82.3334 45.7418 81.6978 45.7418 80.9163ZM50.8345 83.9658C54.8427 85.8653 59.3461 86.8604 64 86.8604C68.6528 86.8604 73.1582 85.8641 77.1672 83.9641C73.4258 87.4972 68.8275 89.418 64 89.418C59.1735 89.418 54.5756 87.4977 50.8345 83.9658ZM80.8411 82.3334C80.0597 82.3334 79.424 81.6978 79.424 80.9163C79.424 80.1349 80.0596 79.4993 80.8411 79.4993C81.6226 79.4993 82.2582 80.135 82.2582 80.9163C82.2582 81.6977 81.6226 82.3334 80.8411 82.3334Z" fill="black" fill-opacity="0.8"/>
</svg>
