<svg width="128" height="128" viewBox="0 0 128 128" fill="none" xmlns="http://www.w3.org/2000/svg">
<rect y="63.6396" width="90" height="90" rx="20" transform="rotate(-45 0 63.6396)" fill="#F6CB6A"/>
<path d="M55.9668 44.3509C55.9668 45.8217 57.1634 47.0184 58.6343 47.0184C60.1051 47.0184 61.3017 45.8217 61.3017 44.3509C61.3017 42.8801 60.1051 41.6835 58.6343 41.6835C57.1634 41.6835 55.9668 42.8801 55.9668 44.3509ZM59.7196 44.3509C59.7196 44.9494 59.2326 45.4364 58.6342 45.4364C58.0357 45.4364 57.5487 44.9494 57.5487 44.3509C57.5487 43.7523 58.0357 43.2655 58.6342 43.2655C59.2327 43.2655 59.7196 43.7523 59.7196 44.3509Z" fill="black" fill-opacity="0.8"/>
<path d="M48.4348 44.3509C48.4348 45.8217 49.6315 47.0184 51.1022 47.0184C52.573 47.0184 53.7696 45.8217 53.7696 44.3509C53.7696 42.8801 52.573 41.6835 51.1022 41.6835C49.6315 41.6835 48.4348 42.8801 48.4348 44.3509ZM52.1876 44.3509C52.1876 44.9494 51.7007 45.4364 51.1022 45.4364C50.5037 45.4364 50.0168 44.9494 50.0168 44.3509C50.0168 43.7523 50.5038 43.2655 51.1022 43.2655C51.7008 43.2655 52.1876 43.7523 52.1876 44.3509Z" fill="black" fill-opacity="0.8"/>
<path d="M40.9028 44.3509C40.9028 45.8217 42.0995 47.0184 43.5702 47.0184C45.041 47.0184 46.2377 45.8217 46.2377 44.3509C46.2377 42.8801 45.041 41.6835 43.5702 41.6835C42.0995 41.6835 40.9028 42.8801 40.9028 44.3509ZM44.6556 44.3509C44.6556 44.9494 44.1687 45.4364 43.5702 45.4364C42.9718 45.4364 42.4849 44.9494 42.4849 44.3509C42.4849 43.7523 42.9718 43.2655 43.5702 43.2655C44.1688 43.2655 44.6556 43.7523 44.6556 44.3509Z" fill="black" fill-opacity="0.8"/>
<path d="M88.627 37.9077H39.373C38.0645 37.9077 37 38.9722 37 40.2807V71.0008C37 71.4376 37.3542 71.7918 37.791 71.7918C38.2279 71.7918 38.582 71.4376 38.582 71.0008V50.7943H68.1762C68.6131 50.7943 68.9673 50.4402 68.9673 50.0033C68.9673 49.5663 68.6131 49.2123 68.1762 49.2123H38.582V40.2807C38.582 39.8444 38.9368 39.4896 39.373 39.4896H88.627C89.0632 39.4896 89.418 39.8444 89.418 40.2807V49.2123H71.6236C71.1867 49.2123 70.8326 49.5663 70.8326 50.0033C70.8326 50.4402 71.1867 50.7943 71.6236 50.7943H89.418V87.7193C89.418 88.1556 89.0632 88.5104 88.627 88.5104H39.373C38.9368 88.5104 38.582 88.1556 38.582 87.7193V74.4482C38.582 74.0112 38.2279 73.6572 37.791 73.6572C37.3542 73.6572 37 74.0112 37 74.4482V87.7194C37 89.0279 38.0645 90.0925 39.373 90.0925H88.627C89.9355 90.0925 91 89.0279 91 87.7194V40.2807C91 38.9722 89.9355 37.9077 88.627 37.9077Z" fill="black" fill-opacity="0.8"/>
<path d="M73.7469 62.5644C74.1838 62.5644 74.538 62.2103 74.538 61.7734V56.8026C74.538 55.7849 73.7099 54.9569 72.6923 54.9569H55.3079C54.2901 54.9569 53.4622 55.7849 53.4622 56.8026V76.68C53.4622 77.6977 54.2901 78.5257 55.3079 78.5257H72.6923C73.7099 78.5257 74.538 77.6977 74.538 76.68V65.2206C74.538 64.7836 74.1838 64.4296 73.7469 64.4296C73.3101 64.4296 72.9559 64.7836 72.9559 65.2206V76.6799C72.9559 76.8253 72.8376 76.9436 72.6923 76.9436H71.57V72.6913C71.57 70.964 70.1647 69.5587 68.4374 69.5587H66.7319V69.4264C67.9418 68.568 68.7337 67.1572 68.7337 65.5641V63.9991C68.7337 61.3889 66.6102 59.2653 64 59.2653C61.3897 59.2653 59.2662 61.3889 59.2662 63.9991V65.5641C59.2662 67.1572 60.0581 68.568 61.268 69.4264V69.5587H59.5625C57.8351 69.5587 56.4299 70.964 56.4299 72.6913V76.9436H55.3076C55.1622 76.9436 55.044 76.8253 55.044 76.6799V56.8026C55.044 56.6572 55.1622 56.5389 55.3076 56.5389H72.692C72.8374 56.5389 72.9557 56.6572 72.9557 56.8026V61.7734C72.9559 62.2102 73.3101 62.5644 73.7469 62.5644ZM62.8502 70.1559C63.2185 70.2482 63.6036 70.2979 64.0001 70.2979C64.3965 70.2979 64.7816 70.2482 65.1499 70.1559V71.2187C65.1499 71.8528 64.634 72.3685 64.0001 72.3685C63.366 72.3685 62.8502 71.8527 62.8502 71.2187V70.1559ZM60.8483 63.9991C60.8483 62.2613 62.2621 60.8473 64.0001 60.8473C65.7379 60.8473 67.1518 62.2611 67.1518 63.9991V65.5641C67.1518 67.3019 65.738 68.7158 64.0001 68.7158C62.2621 68.7158 60.8483 67.302 60.8483 65.5641V63.9991ZM58.0122 72.6913C58.0122 71.8362 58.7077 71.1408 59.5627 71.1408H61.2682V71.2187C61.2682 72.725 62.4938 73.9506 64.0001 73.9506C65.5065 73.9506 66.7319 72.725 66.7319 71.2187V71.1408H68.4374C69.2925 71.1408 69.9879 71.8363 69.9879 72.6913V76.9436H58.0122V72.6913Z" fill="black" fill-opacity="0.8"/>
<path d="M54.2532 84.3477H73.7469C74.1838 84.3477 74.538 83.9936 74.538 83.5566C74.538 83.1197 74.1838 82.7656 73.7469 82.7656H54.2532C53.8163 82.7656 53.4622 83.1197 53.4622 83.5566C53.4622 83.9935 53.8163 84.3477 54.2532 84.3477Z" fill="black" fill-opacity="0.8"/>
</svg>
