<svg width="128" height="128" viewBox="0 0 128 128" fill="none" xmlns="http://www.w3.org/2000/svg">
<rect y="63.6396" width="90" height="90" rx="20" transform="rotate(-45 0 63.6396)" fill="#F6CB6A"/>
<path d="M41.4214 43.2842C40.3675 43.2842 40.3659 44.8662 41.4214 44.8662C42.4752 44.8662 42.4769 43.2842 41.4214 43.2842Z" fill="black" fill-opacity="0.8"/>
<path d="M44.2517 43.2842C43.1979 43.2842 43.1962 44.8662 44.2517 44.8662C45.3056 44.8662 45.3072 43.2842 44.2517 43.2842Z" fill="black" fill-opacity="0.8"/>
<path d="M47.0815 43.2842C46.0277 43.2842 46.026 44.8662 47.0815 44.8662C48.1353 44.8662 48.1371 43.2842 47.0815 43.2842Z" fill="black" fill-opacity="0.8"/>
<path d="M90.209 40.2695H37.791C37.3542 40.2695 37 40.6236 37 41.0605V86.9395C37 87.3764 37.3542 87.7305 37.791 87.7305H49.5066C50.5293 87.7305 50.5293 86.1484 49.5066 86.1484H38.582V47.8809H89.418V86.1484H53.7193C52.6966 86.1484 52.6966 87.7305 53.7193 87.7305H90.209C90.6458 87.7305 91 87.3764 91 86.9395V41.0605C91 40.6236 90.6458 40.2695 90.209 40.2695ZM38.582 46.2989V41.8516H89.418V46.2989H38.582Z" fill="black" fill-opacity="0.8"/>
<path d="M41.2715 82.6679C41.2715 83.1049 41.6256 83.4589 42.0625 83.4589H85.9375C86.3744 83.4589 86.7285 83.1049 86.7285 82.6679V78.1936C86.7285 77.7566 86.3744 77.4026 85.9375 77.4026H42.0625C41.6256 77.4026 41.2715 77.7566 41.2715 78.1936V82.6679ZM42.8535 78.9846H85.1465V81.8769H42.8535V78.9846Z" fill="black" fill-opacity="0.8"/>
<path d="M46.2285 52.7677H69.9669C70.9897 52.7677 70.9897 51.1857 69.9669 51.1857H46.2285C43.4952 51.1857 41.2715 53.4094 41.2715 56.1426C41.262 58.9995 43.7054 61.2596 46.5449 61.0996V62.9453C46.5449 63.5672 47.2603 63.9511 47.7788 63.6008L51.4806 61.0996H70.17C74.0173 61.1332 76.4426 56.7597 74.3749 53.5184C73.8325 52.6514 72.4913 53.4899 73.0334 54.3572C74.4394 56.5646 72.7898 59.5398 70.1698 59.5176H51.2382C51.0803 59.5176 50.9261 59.5647 50.7953 59.6531L48.127 61.4562V60.3086C48.127 59.8716 47.7728 59.5176 47.336 59.5176H46.2285C41.7517 59.3326 41.752 52.9525 46.2285 52.7677Z" fill="black" fill-opacity="0.8"/>
<path d="M52.873 68.3408C52.873 70.347 54.5054 71.9794 56.5117 71.9794H76.5196L80.2213 74.4806C80.7398 74.8308 81.4552 74.4469 81.4552 73.8251V71.9794H83.0898C85.0962 71.9794 86.7285 70.347 86.7285 68.3408C86.7285 66.3345 85.0962 64.7021 83.0898 64.7021H56.5117C54.5054 64.7021 52.873 66.3345 52.873 68.3408ZM85.1465 68.3408C85.1465 69.4748 84.2238 70.3974 83.0898 70.3974H80.6641C80.2272 70.3974 79.873 70.7514 79.873 71.1884V72.336L77.2046 70.5329C77.0738 70.4445 76.9196 70.3974 76.7617 70.3974H56.5117C53.7826 70.2841 53.7848 66.3965 56.5117 66.2842H83.0898C84.2238 66.2842 85.1465 67.2068 85.1465 68.3408Z" fill="black" fill-opacity="0.8"/>
<path d="M82.7735 61.0447C83.7963 61.0447 83.7963 59.4626 82.7735 59.4626H78.1726C77.1498 59.4626 77.1498 61.0447 78.1726 61.0447H82.7735Z" fill="black" fill-opacity="0.8"/>
<path d="M45.2265 70.3973C44.2038 70.3973 44.2038 71.9794 45.2265 71.9794H49.8275C50.8502 71.9794 50.8502 70.3973 49.8275 70.3973H45.2265Z" fill="black" fill-opacity="0.8"/>
</svg>
