<svg width="60" height="60" viewBox="0 0 60 60" fill="none" xmlns="http://www.w3.org/2000/svg">
<path d="M43.8934 48.7272C43.3243 48.7272 42.863 48.2659 42.863 47.6968C42.863 47.1277 43.3243 46.6664 43.8934 46.6664C44.4625 46.6664 44.9238 47.1277 44.9238 47.6968C44.9238 48.2659 44.4625 48.7272 43.8934 48.7272Z" fill="black" fill-opacity="0.8"/>
<path d="M2.24792 20.6298C1.57046 20.6298 1.01921 20.0786 1.01921 19.401V12.3759C1.01921 11.6984 1.57046 11.1471 2.24792 11.1471H9.41464V1.7427C9.41464 0.781758 10.1964 0 11.1573 0H48.8428C49.8037 0 50.5854 0.781758 50.5854 1.7427V11.1472H57.7521C58.4297 11.1472 58.981 11.6985 58.981 12.3761V19.751C58.981 20.2364 58.5874 20.6299 58.1021 20.6299H56.1559V58.2422H58.1021C58.5874 58.2422 58.981 58.6357 58.981 59.1211C58.981 59.6065 58.5874 60 58.1021 60H1.898C1.41249 60 1.01909 59.6065 1.01909 59.1211C1.01909 58.6357 1.41249 58.2422 1.898 58.2422H3.84413V20.6298H2.24792ZM48.8276 1.75781H11.1725V13.9557H48.8276V1.75781ZM38.5395 58.2422H49.2475V37.2524C49.2475 37.1968 49.2022 37.1517 49.1467 37.1517H38.6403C38.5846 37.1517 38.5395 37.197 38.5395 37.2524V58.2422ZM5.60206 58.2422H36.7817V37.2524C36.7817 36.2277 37.6155 35.3939 38.6403 35.3939H49.1467C50.1715 35.3939 51.0053 36.2277 51.0053 37.2524V58.2422H54.3981V33.3641H5.60194V58.2422H5.60206ZM54.3981 31.6063V26.5948H50.5854V31.6063H54.3981ZM48.8276 31.6063V26.5948H44.955V31.6063H48.8276ZM43.1972 31.6063V26.5948H39.3246V31.6063H43.1972ZM37.5668 31.6063V26.5948H33.6942V31.6063H37.5668ZM31.9363 31.6063V26.5948H28.0637V31.6063H31.9363ZM26.3059 31.6063V26.5948H22.4333V31.6063H26.3059ZM20.6755 31.6063V26.5948H16.803V31.6063H20.6755ZM15.045 31.6063V26.5948H11.1725V31.6063H15.045ZM5.60206 31.6063H9.41464V26.5948H5.60206V31.6063ZM41.3035 20.6298H5.60206V24.837H54.3981V20.6298H44.8956C44.4102 20.6298 44.0167 20.2363 44.0167 19.7509C44.0167 19.2655 44.4102 18.872 44.8956 18.872H57.2231V12.9049H50.5854V13.9709C50.5854 14.9318 49.8037 15.7134 48.8428 15.7134H11.1573C10.1964 15.7134 9.41464 14.9317 9.41464 13.9709V12.9049H2.77691V18.872H41.3035C41.7888 18.872 42.1824 19.2655 42.1824 19.7509C42.1824 20.2363 41.7888 20.6298 41.3035 20.6298Z" fill="black" fill-opacity="0.8"/>
<path d="M31.5796 54.8734H19.4395C18.9541 54.8734 18.5606 54.4799 18.5606 53.9945C18.5606 53.5091 18.9541 53.1156 19.4395 53.1156H22.3881V37.1516H10.177V53.1156H15.9239C16.4094 53.1156 16.8028 53.5091 16.8028 53.9945C16.8028 54.4799 16.4094 54.8734 15.9239 54.8734H9.86505C9.06782 54.8734 8.41919 54.2248 8.41919 53.4275V36.8397C8.41919 36.0424 9.06782 35.3938 9.86505 35.3938H31.5796C32.3769 35.3938 33.0254 36.0424 33.0254 36.8397V53.4277C33.0255 54.2249 32.3769 54.8734 31.5796 54.8734ZM31.2677 37.1516H24.1459V40.0213H31.2677V37.1516ZM31.2677 41.7792H24.1459V44.2548H31.2677V41.7792ZM31.2677 46.0126H24.1459V48.4882H31.2677V46.0126ZM31.2677 50.2458H24.1459V53.1156H31.2677V50.2458Z" fill="black" fill-opacity="0.8"/>
</svg>
