<svg width="128" height="128" viewBox="0 0 128 128" fill="none" xmlns="http://www.w3.org/2000/svg">
<rect y="63.6396" width="90" height="90" rx="20" transform="rotate(-45 0 63.6396)" fill="#F6CB6A"/>
<g clip-path="url(#clip0)">
<path d="M68.67 51.4371H85.2133C85.6509 51.4371 86.0056 51.0824 86.0056 50.6448C86.0056 50.2072 85.6509 49.8525 85.2133 49.8525H68.67C68.2324 49.8525 67.8777 50.2072 67.8777 50.6448C67.8777 51.0824 68.2324 51.4371 68.67 51.4371Z" fill="black" fill-opacity="0.8"/>
<path d="M86.0056 55.6896C86.0056 55.252 85.6509 54.8973 85.2133 54.8973H68.67C68.2324 54.8973 67.8777 55.252 67.8777 55.6896C67.8777 56.1272 68.2324 56.4819 68.67 56.4819H85.2133C85.6509 56.4819 86.0056 56.1272 86.0056 55.6896Z" fill="black" fill-opacity="0.8"/>
<path d="M76.0018 59.9421H68.67C68.2324 59.9421 67.8777 60.2968 67.8777 60.7344C67.8777 61.172 68.2324 61.5267 68.67 61.5267H76.0018C76.4394 61.5267 76.7941 61.172 76.7941 60.7344C76.7941 60.2968 76.4394 59.9421 76.0018 59.9421Z" fill="black" fill-opacity="0.8"/>
<path d="M86.939 42.0669H58.7773C53.2822 38.4958 45.9116 39.12 41.1217 43.91C35.6261 49.4057 35.6261 58.3477 41.1217 63.8433C41.2612 63.9828 41.4045 64.1181 41.5494 64.2514V72.4391C41.5494 74.6784 43.3712 76.5002 45.6105 76.5002H60.8914L59.8021 81.2028H58.5067C55.6301 81.2028 53.2897 83.5431 53.2897 86.4198C53.2897 87.4097 54.0951 88.2152 55.085 88.2152H77.4642C78.4541 88.2152 79.2596 87.4098 79.2596 86.4198C79.2596 83.5431 76.9192 81.2028 74.0426 81.2028H72.7471L71.6581 76.5002H86.939C89.1783 76.5002 91.0001 74.6784 91.0001 72.4391V46.128C91.0001 43.8887 89.1783 42.0669 86.939 42.0669ZM51.0734 41.3679C61.5135 41.3679 67.3877 53.446 60.9077 61.6302C56.236 67.5299 47.5123 67.993 42.2423 62.7228C34.3648 54.8453 40.0251 41.3679 51.0734 41.3679ZM62.1531 67.1363L64.3481 64.9412L64.3582 64.9311C64.3999 64.8894 64.4473 64.8807 64.4798 64.8807C64.5123 64.8807 64.5598 64.8894 64.6014 64.9311L71.1739 71.5036C71.8518 72.1814 71.8518 73.2843 71.1739 73.9622C70.4946 74.6416 69.3948 74.6416 68.7155 73.9622L62.1429 67.3897C62.0757 67.3226 62.0757 67.2133 62.1429 67.1462L62.1525 67.1366C62.1527 67.1366 62.1529 67.1365 62.1531 67.1363ZM61.5927 65.4556L60.5033 64.3662C60.8615 64.0441 61.2257 63.6833 61.578 63.2916L62.6674 64.381L61.5927 65.4556ZM51.0735 67.9692C53.9854 67.9692 56.8607 67.0703 59.259 65.363L60.6024 66.7063C60.3965 67.319 60.5352 68.023 61.0224 68.5103L62.0127 69.5006H43.1341V65.5117C45.5367 67.1558 48.2978 67.9692 51.0735 67.9692ZM43.1341 72.439V71.0852H63.5974L67.4277 74.9155H45.6106C44.2451 74.9155 43.1341 73.8046 43.1341 72.439ZM77.6751 86.4198C77.6751 86.536 77.5806 86.6305 77.4644 86.6305H55.0851C54.969 86.6305 54.8745 86.536 54.8745 86.4198C54.8745 84.417 56.504 82.7874 58.5068 82.7874H74.0428C76.0456 82.7875 77.6751 84.417 77.6751 86.4198ZM71.1207 81.2028H61.4287L62.518 76.5002H70.0315L71.1207 81.2028ZM86.939 74.9155H72.4495C73.3907 73.8365 73.5176 72.2903 72.8299 71.0852H78.0059C78.4435 71.0852 78.7982 70.7305 78.7982 70.2929C78.7982 69.8553 78.4435 69.5006 78.0059 69.5006H71.4119L65.722 63.8108C65.3901 63.479 64.9491 63.2962 64.4798 63.2962C64.2852 63.2962 64.0961 63.3293 63.917 63.3898L62.5753 62.048C66.5493 56.4806 65.9473 48.8024 61.0549 43.9101C60.9671 43.8222 60.8774 43.7368 60.7876 43.6516H86.9389C88.3044 43.6516 89.4154 44.7625 89.4154 46.1281V69.5007H81.4196C80.982 69.5007 80.6273 69.8554 80.6273 70.293C80.6273 70.7306 80.982 71.0853 81.4196 71.0853H89.4154V72.4391C89.4154 73.8046 88.3045 74.9155 86.939 74.9155Z" fill="black" fill-opacity="0.8"/>
<path d="M51.0885 65.0887C57.2851 65.0887 62.3005 60.0741 62.3005 53.8766C62.3005 47.6801 57.2859 42.6646 51.0885 42.6646C45.4425 42.6646 40.8263 46.8092 40.0058 52.1727C39.9397 52.6052 40.2367 53.0096 40.6693 53.0757C41.1019 53.1425 41.5062 52.8448 41.5723 52.4123C42.2722 47.8363 46.2151 44.2492 51.0885 44.2492C56.4092 44.2492 60.716 48.5552 60.716 53.8767C60.716 56.1984 59.8973 58.3931 58.4004 60.1361C58.0706 59.5191 57.5364 59.0179 56.8494 58.7155C56.0357 58.3573 54.7034 58.1224 53.6498 57.9819L53.6463 57.1643C54.5133 56.5148 55.1309 55.5473 55.3186 54.4292C55.4674 54.3622 55.6042 54.2677 55.7225 54.1484C55.9777 53.8916 56.1169 53.5508 56.1145 53.1889C56.109 52.3696 56.1089 50.9148 56.1089 50.9003V49.7185C56.1089 48.8257 55.4703 48.0793 54.6258 47.9121C54.4415 47.09 53.7059 46.4738 52.8288 46.4738H49.3391C47.5019 46.4738 46.0072 47.9686 46.0072 49.8058V51.6959V53.203C46.0072 53.7454 46.33 54.2138 46.7936 54.4261C46.9769 55.5102 47.5635 56.4535 48.3894 57.1025L48.3932 58.0041C47.3407 58.1535 46.0103 58.3997 45.1998 58.7648C44.5687 59.0491 44.0673 59.5207 43.7452 60.1029C42.6353 58.7976 41.8995 57.2338 41.6041 55.5363C41.5292 55.1052 41.1196 54.8166 40.6876 54.8915C40.2565 54.9666 39.9678 55.3769 40.0429 55.808C40.4398 58.0888 41.5178 60.1625 43.1602 61.8049C45.2717 63.9163 48.0875 65.0887 51.0885 65.0887ZM49.3394 48.0582H52.829C52.9705 48.0582 53.0858 48.1734 53.0858 48.3149C53.0858 48.9472 53.6002 49.4616 54.2324 49.4616H54.2678C54.4093 49.4616 54.5245 49.5768 54.5245 49.7183V50.03L53.7266 49.9552C52.8554 49.8733 51.9652 50.0802 51.2192 50.5371C50.8279 50.7767 50.3785 50.9033 49.9196 50.9033H47.5922V49.8055C47.5919 48.8422 48.3759 48.0582 49.3394 48.0582ZM47.592 52.9928V52.4881H49.9194C50.6706 52.4881 51.4061 52.2808 52.0466 51.8884C52.5024 51.6094 53.0463 51.4831 53.5786 51.533L54.5249 51.6217C54.5256 52.0395 54.5266 52.565 54.5287 52.9893C54.1233 53.0864 53.8143 53.4393 53.7891 53.8718C53.7051 55.3131 52.5056 56.4422 51.0582 56.4422C49.6138 56.4422 48.4124 55.314 48.3231 53.8738C48.2964 53.4452 47.9921 53.0947 47.592 52.9928ZM51.0582 58.0268C51.4044 58.0268 51.7414 57.9851 52.0649 57.9077L52.0661 58.222C52.0669 58.3984 52.1039 58.567 52.1688 58.7218C51.8308 58.9368 51.4361 59.0546 51.0234 59.0558C51.0211 59.0558 51.0191 59.0558 51.0168 59.0558C50.6084 59.0558 50.217 58.9416 49.8806 58.7317C49.9442 58.5762 49.9797 58.4071 49.9789 58.2308L49.9774 57.8887C50.3236 57.9783 50.6856 58.0268 51.0582 58.0268ZM45.8508 60.2093C46.3245 59.9959 47.2719 59.7733 48.4305 59.5999C49.1221 60.2663 50.0416 60.6404 51.0167 60.6404H51.028C52.0085 60.6376 52.9312 60.2568 53.6253 59.5778C54.7856 59.7414 55.7351 59.9561 56.2111 60.1657C56.7288 60.3936 57.0681 60.8226 57.1625 61.3466C55.4506 62.7439 53.3281 63.5041 51.0885 63.5041C48.8286 63.5041 46.6879 62.7302 44.968 61.3086C45.0775 60.8193 45.3966 60.4139 45.8508 60.2093Z" fill="black" fill-opacity="0.8"/>
</g>
<defs>
<clipPath id="clip0">
<rect width="54" height="54" fill="white" transform="translate(37 37)"/>
</clipPath>
</defs>
</svg>
