<svg width="60" height="60" viewBox="0 0 60 60" fill="none" xmlns="http://www.w3.org/2000/svg">
<path d="M58.8212 44.575C56.8085 42.5623 54.1324 41.4537 51.2859 41.4537C48.7455 41.4537 46.341 42.3366 44.4225 43.9573C40.2401 40.4316 33.962 40.6375 30.0245 44.575C29.8587 44.7407 29.7656 44.9655 29.7656 45.1999C29.7656 53.2818 36.3409 59.8571 44.4228 59.8571C52.5048 59.8571 59.0801 53.2818 59.0801 45.1999C59.08 44.9655 58.9869 44.7406 58.8212 44.575ZM43.5686 45.5595C43.7104 45.8776 44.0262 46.0835 44.3757 46.0835H44.4701C44.8198 46.0835 45.1357 45.8774 45.2774 45.5593C46.9209 44.0486 49.0399 43.2212 51.2861 43.2212C53.3086 43.2212 55.2268 43.894 56.7889 45.1305C49.7895 51.5507 38.993 51.5764 31.9641 45.2056C35.3541 42.454 40.3136 42.5708 43.5686 45.5595ZM44.4227 58.0896C38.0325 58.0896 32.7144 53.4154 31.7059 47.3064C35.3824 50.256 39.8587 51.732 44.3357 51.732C48.8943 51.732 53.4521 50.202 57.1658 47.144C56.2259 53.3323 50.8696 58.0896 44.4227 58.0896Z" fill="black" fill-opacity="0.8"/>
<path d="M23.217 26.2374C22.9492 26.0782 22.6171 26.0717 22.3433 26.2204C22.1863 26.3058 18.4506 28.3592 14.3048 32.6491C10.4776 36.6091 5.58389 43.2992 4.00339 52.6839C3.69671 54.505 4.20565 56.3592 5.40003 57.7716C6.59768 59.1878 8.34788 60 10.2019 60H18.195C21.2023 60 23.6489 57.5535 23.6489 54.5461V26.9969C23.6491 26.6853 23.4849 26.3968 23.217 26.2374ZM21.8816 54.5461C21.8816 56.5788 20.2279 58.2326 18.1951 58.2326H10.202C8.86901 58.2326 7.61065 57.6485 6.74956 56.6303C5.89175 55.616 5.52612 54.2846 5.74643 52.9775C7.24725 44.0659 11.8961 37.6967 15.5317 33.9231C18.0591 31.2997 20.463 29.5286 21.8816 28.5851V54.5461Z" fill="black" fill-opacity="0.8"/>
<path d="M14.1398 52.4474C11.8806 52.4474 9.60107 53.1191 9.60107 54.6199C9.60107 55.108 9.9967 55.5036 10.4848 55.5036C10.9178 55.5036 11.2781 55.1922 11.3537 54.7809C11.6154 54.5679 12.6221 54.2148 14.1398 54.2148C15.6574 54.2148 16.664 54.5679 16.9258 54.7809C17.0015 55.192 17.3617 55.5036 17.7947 55.5036C18.2828 55.5036 18.6784 55.108 18.6784 54.6199C18.6784 53.1191 16.3988 52.4474 14.1398 52.4474Z" fill="black" fill-opacity="0.8"/>
<path d="M32.0731 13.8091C31.856 13.4988 27.8024 7.79203 22.0353 5.22035L23.5666 1.93125C23.7726 1.48887 23.5809 0.963164 23.1384 0.757266C22.6961 0.55125 22.1704 0.742969 21.9644 1.18547L20.3798 4.58953C19.5708 4.33453 18.7346 4.1502 17.8766 4.05516V0.883711C17.8766 0.395625 17.4809 0 16.9929 0C16.5048 0 16.1092 0.395625 16.1092 0.883711V3.99176C15.2192 4.02762 14.3504 4.16355 13.5081 4.3793L12.0212 1.18535C11.8152 0.742851 11.2896 0.55125 10.8472 0.757148C10.4047 0.963164 10.2131 1.48875 10.419 1.93113L11.8145 4.92867C5.67935 7.32891 1.30544 13.4864 1.07962 13.8091C0.866689 14.1134 0.866689 14.5184 1.07962 14.8226C1.3604 15.2239 8.05544 24.6503 16.5765 24.6503C25.0974 24.6503 31.7925 15.2237 32.0733 14.8225C32.2861 14.5182 32.2861 14.1134 32.0731 13.8091ZM11.8199 6.84844C13.3112 6.17766 14.9142 5.74875 16.5764 5.74875C18.2393 5.74875 19.844 6.17977 21.3377 6.85336C22.5513 8.10035 23.2199 9.74051 23.2199 11.4841C23.2199 13.2587 22.5288 14.927 21.2741 16.1818C20.0193 17.4366 18.3509 18.1277 16.5763 18.1277C14.8017 18.1277 13.1333 17.4367 11.8786 16.1818C9.30864 13.6118 9.29001 9.44344 11.8199 6.84844ZM16.5766 22.8831C10.0375 22.8831 4.39286 16.226 2.90798 14.3155C3.7277 13.2584 5.81763 10.7514 8.62931 8.72086C8.32521 9.59789 8.16548 10.5287 8.16548 11.4843C8.16548 13.7309 9.0404 15.843 10.629 17.4316C12.2176 19.0203 14.3298 19.8952 16.5764 19.8952C18.823 19.8952 20.9353 19.0202 22.5238 17.4316C24.1125 15.843 24.9873 13.731 24.9873 11.4843C24.9873 10.5308 24.8281 9.60223 24.5254 8.72695C27.3337 10.7565 29.4239 13.2599 30.2448 14.316C28.7588 16.2278 23.1146 22.8831 16.5766 22.8831Z" fill="black" fill-opacity="0.8"/>
<path d="M16.5758 7.07617C14.3386 7.07617 12.5186 8.89621 12.5186 11.1334C12.5186 13.3707 14.3386 15.1907 16.5758 15.1907C18.813 15.1907 20.6331 13.3707 20.6331 11.1334C20.6331 8.89621 18.813 7.07617 16.5758 7.07617ZM16.5758 13.4233C15.3132 13.4233 14.286 12.396 14.286 11.1334C14.286 9.87086 15.3132 8.84359 16.5758 8.84359C17.8384 8.84359 18.8657 9.87086 18.8657 11.1334C18.8657 12.396 17.8385 13.4233 16.5758 13.4233Z" fill="black" fill-opacity="0.8"/>
<path d="M47.5548 19.9103C45.3176 19.9103 43.4976 21.7303 43.4976 23.9675C43.4976 26.2048 45.3176 28.0248 47.5548 28.0248C49.7921 28.0248 51.6121 26.2048 51.6121 23.9675C51.6121 21.7303 49.7921 19.9103 47.5548 19.9103ZM47.5548 26.2574C46.2922 26.2574 45.265 25.2301 45.265 23.9675C45.265 22.7048 46.2922 21.6777 47.5548 21.6777C48.8174 21.6777 49.8447 22.705 49.8447 23.9675C49.8447 25.2302 48.8175 26.2574 47.5548 26.2574Z" fill="black" fill-opacity="0.8"/>
<path d="M57.8046 25.2677C58.2927 25.2677 58.6884 24.872 58.6884 24.3839C58.6884 23.8959 58.2927 23.5002 57.8046 23.5002H54.6966C54.6607 22.6103 54.5248 21.7415 54.3091 20.8993L57.503 19.4124C57.9455 19.2064 58.1371 18.6808 57.9312 18.2384C57.7252 17.796 57.1996 17.6044 56.7572 17.8102L53.7597 19.2055C51.3594 13.0704 45.202 8.69652 44.8793 8.4707C44.5751 8.25765 44.1701 8.25765 43.8659 8.4707C43.4645 8.75148 34.0381 15.4465 34.0381 23.9676C34.0381 32.4886 43.4646 39.1837 43.8659 39.4644C44.018 39.571 44.1953 39.6241 44.3725 39.6241C44.5497 39.6241 44.727 39.5709 44.8791 39.4644C45.1894 39.2473 50.8962 35.1937 53.4678 29.4266L56.7572 30.9579C56.8779 31.0142 57.0047 31.0408 57.1295 31.0408C57.4625 31.0408 57.7814 30.8516 57.9312 30.5297C58.1372 30.0872 57.9455 29.5616 57.503 29.3557L54.0988 27.7711C54.3538 26.9621 54.5382 26.1258 54.6332 25.2679H57.8046V25.2677ZM44.372 37.6361C42.4602 36.153 35.8054 30.518 35.8054 23.9675C35.8054 17.4284 42.4626 11.7837 44.3731 10.2988C45.4301 11.1189 47.9371 13.2088 49.9676 16.0206C49.0906 15.7164 48.1598 15.5567 47.2041 15.5567C44.9575 15.5567 42.8453 16.4316 41.2567 18.0202C39.668 19.6088 38.7932 21.7209 38.7932 23.9676C38.7932 26.2143 39.668 28.3264 41.2567 29.915C42.8453 31.5037 44.9575 32.3785 47.2041 32.3785C48.1575 32.3785 49.0861 32.2194 49.9614 31.9166C47.9316 34.7251 45.4279 36.8154 44.372 37.6361ZM51.8349 28.7288C50.5879 29.9425 48.9476 30.611 47.2039 30.611C45.4293 30.611 43.761 29.92 42.5062 28.6653C41.2514 27.4105 40.5603 25.7421 40.5603 23.9676C40.5603 22.1931 41.2513 20.5247 42.5062 19.2699C43.761 18.0152 45.4293 17.3241 47.2039 17.3241C48.9498 17.3241 50.592 17.9943 51.8397 19.2109C52.5105 20.7021 52.9395 22.3052 52.9395 23.9673C52.9396 25.6303 52.5085 27.2351 51.8349 28.7288Z" fill="black" fill-opacity="0.8"/>
<path d="M20.5131 34.164C20.2474 33.7545 19.7 33.6381 19.2907 33.9037C13.0722 37.9387 10.0086 46.4179 9.88121 46.777C9.71797 47.2368 9.95855 47.7421 10.4185 47.9052C10.5162 47.9399 10.6159 47.9563 10.7141 47.9563C11.0777 47.9563 11.4185 47.7303 11.5469 47.3679C11.5761 47.2857 14.5319 39.0985 20.2528 35.3863C20.6622 35.1208 20.7787 34.5734 20.5131 34.164Z" fill="black" fill-opacity="0.8"/>
<path d="M56.0206 4.93584C52.8551 1.77026 48.64 0.0269775 44.1517 0.0269775C39.6633 0.0269775 35.4485 1.77026 32.2829 4.93573C31.7638 5.45475 31.478 6.14475 31.478 6.87881C31.478 7.61288 31.7638 8.30288 32.2829 8.8219C33.3546 9.89334 35.0977 9.89311 36.1689 8.82178C40.5706 4.42022 47.7329 4.42022 52.1344 8.82178C52.6535 9.34081 53.3436 9.62663 54.0775 9.62663C54.8115 9.62663 55.5016 9.34081 56.0206 8.82178C57.0921 7.75045 57.0921 6.00717 56.0206 4.93584ZM54.7709 7.57221C54.5857 7.75737 54.3394 7.85944 54.0777 7.85944C53.8159 7.85944 53.5694 7.75737 53.3844 7.57221C50.8389 5.02678 47.4955 3.75424 44.1519 3.75424C40.8083 3.75424 37.4647 5.0269 34.9192 7.57221C34.537 7.95448 33.9151 7.95448 33.5327 7.57221C33.3474 7.38694 33.2455 7.14073 33.2455 6.87893C33.2455 6.61713 33.3474 6.37069 33.5326 6.18565C36.3642 3.35393 40.1355 1.79452 44.1517 1.79452C48.168 1.79452 51.9392 3.35393 54.7709 6.18565C54.9562 6.37092 55.0582 6.61713 55.0582 6.87893C55.0583 7.14084 54.9562 7.38705 54.7709 7.57221Z" fill="black" fill-opacity="0.8"/>
<path d="M30.6134 29.0309C30.4472 28.8013 30.181 28.6654 29.8976 28.6654C29.6143 28.6654 29.348 28.8013 29.1818 29.0309C28.5644 29.8839 26.5498 32.7857 26.5498 34.3141C26.5498 36.16 28.0517 37.6619 29.8976 37.6619C31.7436 37.6619 33.2454 36.16 33.2454 34.3141C33.2453 32.7857 31.2307 29.8838 30.6134 29.0309ZM29.8975 35.8944C29.0261 35.8944 28.3171 35.1854 28.3171 34.314C28.3171 33.7949 29.0489 32.419 29.897 31.1135C30.7472 32.4261 31.4779 33.8098 31.4779 34.314C31.478 35.1855 30.769 35.8944 29.8975 35.8944Z" fill="black" fill-opacity="0.8"/>
</svg>
