<svg width="60" height="60" viewBox="0 0 60 60" fill="none" xmlns="http://www.w3.org/2000/svg">
<path d="M27.1034 47.7133C24.7244 47.7133 22.7891 49.6487 22.7891 52.0277C22.7891 54.4068 24.7245 56.3422 27.1034 56.3422H32.8971C35.2761 56.3422 37.2115 54.4068 37.2115 52.0277C37.2115 49.6487 35.276 47.7133 32.8971 47.7133H27.1034ZM35.4538 52.0277C35.4538 53.4375 34.3068 54.5844 32.8972 54.5844H27.1034C25.6938 54.5844 24.5469 53.4375 24.5469 52.0277C24.5469 50.618 25.6938 49.4711 27.1034 49.4711H32.8971C34.3068 49.4711 35.4538 50.618 35.4538 52.0277Z" fill="black" fill-opacity="0.8"/>
<path d="M23.668 7.49414H36.3327C36.8182 7.49414 37.2116 7.10063 37.2116 6.61523C37.2116 6.12984 36.8182 5.73633 36.3327 5.73633H23.668C23.1825 5.73633 22.7891 6.12984 22.7891 6.61523C22.7891 7.10063 23.1825 7.49414 23.668 7.49414Z" fill="black" fill-opacity="0.8"/>
<path d="M17.7188 19.193L14.6311 18.7443L13.2501 15.9463C13.0016 15.4427 12.4983 15.1298 11.9366 15.1298C11.3749 15.1298 10.8716 15.4427 10.623 15.9463L9.24208 18.7444L6.15431 19.1931C5.59849 19.2739 5.14533 19.6559 4.97166 20.1902C4.79822 20.7243 4.94013 21.2997 5.34232 21.6918L7.57673 23.8698L7.04915 26.9452C6.95423 27.4988 7.17771 28.0478 7.63216 28.3779C7.88892 28.5644 8.18927 28.6592 8.49162 28.6592C8.72447 28.6592 8.95849 28.603 9.1747 28.4894L11.9365 27.0373L14.6982 28.4893C15.195 28.7505 15.7862 28.708 16.2408 28.3779C16.6952 28.0478 16.9186 27.4988 16.8236 26.9451L16.2962 23.8698L18.5305 21.6919C18.9328 21.2998 19.0748 20.7244 18.9013 20.1903C18.7278 19.6558 18.2747 19.2736 17.7188 19.193ZM14.9591 22.7182C14.6141 23.0547 14.4565 23.5391 14.5378 24.0148L14.991 26.6568L12.618 25.4093C12.1913 25.185 11.6817 25.185 11.255 25.4093C11.2549 25.4093 11.2549 25.4093 11.2548 25.4093L8.88208 26.6568L9.33537 24.0143C9.41658 23.5391 9.25908 23.0546 8.91396 22.7181L6.99431 20.847L9.64697 20.4616C10.1244 20.3923 10.5369 20.0927 10.7501 19.6602L11.9365 17.2564L13.1227 19.6599C13.336 20.0925 13.7485 20.3922 14.2258 20.4614L16.8786 20.847L14.9591 22.7182Z" fill="black" fill-opacity="0.8"/>
<path d="M35.7823 19.193L32.6946 18.7443L31.3136 15.9463C31.0651 15.4427 30.5617 15.1298 30.0001 15.1298C29.4384 15.1298 28.9351 15.4427 28.6865 15.9463L27.3056 18.7444L24.2178 19.1931C23.662 19.2739 23.2088 19.6559 23.0351 20.1902C22.8617 20.7243 23.0036 21.2997 23.4058 21.6918L25.6402 23.8698L25.1126 26.9452C25.0177 27.4988 25.2412 28.0478 25.6956 28.3779C25.9524 28.5644 26.2528 28.6592 26.5551 28.6592C26.7879 28.6592 27.022 28.603 27.2382 28.4894L30.0001 27.0371L32.7618 28.489C33.2585 28.7502 33.8498 28.7078 34.3044 28.3777C34.7588 28.0476 34.9822 27.4986 34.8872 26.9448L34.3598 23.8696L36.5941 21.6917C36.9964 21.2996 37.1384 20.7242 36.9649 20.19C36.7913 19.6558 36.3381 19.2736 35.7823 19.193ZM33.0226 22.7182C32.6776 23.0547 32.5199 23.5391 32.6013 24.0148L33.0544 26.6568L30.6815 25.4093C30.2548 25.185 29.7452 25.185 29.3185 25.4093C29.3184 25.4093 29.3184 25.4093 29.3183 25.4093L26.9456 26.6568L27.3988 24.0143C27.4801 23.5391 27.3226 23.0546 26.9774 22.7181L25.0578 20.847L27.7104 20.4616C28.1879 20.3923 28.6004 20.0927 28.8135 19.6602L30.0001 17.2565L31.1863 19.66C31.3996 20.0927 31.8121 20.3923 32.2894 20.4616L34.9422 20.8471L33.0226 22.7182Z" fill="black" fill-opacity="0.8"/>
<path d="M53.8453 19.193L50.7575 18.7443L49.3766 15.9463C49.128 15.4427 48.6247 15.1298 48.063 15.1298C47.5014 15.1298 46.998 15.4427 46.7495 15.9463L45.3686 18.7444L42.2808 19.1931C41.725 19.2739 41.2718 19.6559 41.0981 20.1902C40.9247 20.7243 41.0666 21.2997 41.4688 21.6918L43.7032 23.8698L43.1756 26.9452C43.0807 27.4988 43.3042 28.0478 43.7586 28.3779C44.0153 28.5644 44.3157 28.6592 44.6181 28.6592C44.8509 28.6592 45.085 28.603 45.3012 28.4894L48.0629 27.0373L50.8247 28.4893C51.3214 28.7505 51.9128 28.708 52.3672 28.3779C52.8217 28.0478 53.045 27.4988 52.9501 26.9451L52.4227 23.8698L54.6569 21.6919C55.0593 21.2998 55.2013 20.7244 55.0277 20.1903C54.8544 19.6558 54.4012 19.2736 53.8453 19.193ZM51.0857 22.7182C50.7407 23.0547 50.583 23.5391 50.6644 24.0148L51.1175 26.6568L48.7446 25.4093C48.3179 25.185 47.8083 25.185 47.3816 25.4093C47.3815 25.4093 47.3815 25.4093 47.3814 25.4093L45.0087 26.6568L45.4619 24.0143C45.5432 23.5391 45.3857 23.0546 45.0405 22.7181L43.1209 20.847L45.7736 20.4616C46.251 20.3923 46.6635 20.0927 46.8766 19.6602L48.063 17.2564L49.2493 19.6599C49.4626 20.0925 49.8751 20.3922 50.3524 20.4614L53.0052 20.847L51.0857 22.7182Z" fill="black" fill-opacity="0.8"/>
<path d="M56.1914 10.3821H50.748V3.80859C50.748 1.70859 49.0396 0 46.9395 0H13.0605C10.9604 0 9.25195 1.70859 9.25195 3.80859V10.3821H3.80859C1.70848 10.3821 0 12.0907 0 14.1907V29.5975C0 31.6975 1.70848 33.4061 3.80859 33.4061H9.25195V36.1109C9.25195 36.5962 9.64535 36.9898 10.1309 36.9898C10.6164 36.9898 11.0098 36.5962 11.0098 36.1109V33.4061H24.101C24.414 33.4061 24.7056 33.5745 24.8621 33.8455L28.7486 40.5771C29.0134 41.0357 29.4875 41.3095 30.017 41.3095H30.0172C30.5467 41.3095 31.0209 41.0358 31.2858 40.5771L35.1723 33.8455C35.3289 33.5745 35.6204 33.4061 35.9334 33.4061H48.9902V44.1975H42.5737C42.0882 44.1975 41.6948 44.591 41.6948 45.0764C41.6948 45.5618 42.0882 45.9553 42.5737 45.9553H48.9902V56.1914C48.9902 57.3221 48.0702 58.2422 46.9395 58.2422H13.0605C11.9298 58.2422 11.0098 57.3221 11.0098 56.1914V45.9554H38.7432C39.2288 45.9554 39.6222 45.5619 39.6222 45.0765C39.6222 44.5911 39.2288 44.1976 38.7432 44.1976H11.0098V40.0688C11.0098 39.5834 10.6164 39.1898 10.1309 39.1898C9.64535 39.1898 9.25195 39.5834 9.25195 40.0688V56.1914C9.25195 58.2914 10.9604 60 13.0605 60H46.9395C49.0396 60 50.748 58.2914 50.748 56.1914V33.4061H56.1914C58.2915 33.4061 60 31.6975 60 29.5975V14.1907C60 12.0907 58.2915 10.3821 56.1914 10.3821ZM58.2422 29.5975C58.2422 30.7282 57.3221 31.6482 56.1914 31.6482H35.9336C34.9945 31.6482 34.1196 32.1534 33.6502 32.9666L30.0173 39.2588L26.3845 32.9666C25.915 32.1534 25.04 31.6482 24.1011 31.6482H3.80859C2.67785 31.6482 1.75781 30.7282 1.75781 29.5975V14.1907C1.75781 13.06 2.67785 12.1399 3.80859 12.1399H16.18C16.6655 12.1399 17.0589 11.7464 17.0589 11.261C17.0589 10.7756 16.6655 10.3821 16.18 10.3821H11.0098V3.80859C11.0098 2.67785 11.9298 1.75781 13.0605 1.75781H46.9395C48.0702 1.75781 48.9902 2.67785 48.9902 3.80859V10.3821H20.0105C19.525 10.3821 19.1316 10.7756 19.1316 11.261C19.1316 11.7464 19.525 12.1399 20.0105 12.1399H56.1914C57.3221 12.1399 58.2422 13.06 58.2422 14.1907V29.5975Z" fill="black" fill-opacity="0.8"/>
</svg>
