<svg width="128" height="128" viewBox="0 0 128 128" fill="none" xmlns="http://www.w3.org/2000/svg">
<rect y="63.6396" width="90" height="90" rx="20" transform="rotate(-45 0 63.6396)" fill="#F6CB6A"/>
<path d="M73.3742 42.7076C73.9791 42.7076 74.4694 42.2173 74.4694 41.6124C74.4694 41.0075 73.9791 40.5172 73.3742 40.5172C72.7694 40.5172 72.2791 41.0075 72.2791 41.6124C72.2791 42.2173 72.7694 42.7076 73.3742 42.7076Z" fill="black" fill-opacity="0.8"/>
<path d="M77.3806 42.7076C77.9854 42.7076 78.4758 42.2173 78.4758 41.6124C78.4758 41.0075 77.9854 40.5172 77.3806 40.5172C76.7757 40.5172 76.2854 41.0075 76.2854 41.6124C76.2854 42.2173 76.7757 42.7076 77.3806 42.7076Z" fill="black" fill-opacity="0.8"/>
<path d="M81.3867 42.7076C81.9915 42.7076 82.4819 42.2173 82.4819 41.6124C82.4819 41.0075 81.9915 40.5172 81.3867 40.5172C80.7818 40.5172 80.2915 41.0075 80.2915 41.6124C80.2915 42.2173 80.7818 42.7076 81.3867 42.7076Z" fill="black" fill-opacity="0.8"/>
<path d="M83.8863 37H44.1138C42.6247 37 41.4131 38.2115 41.4131 39.7006V88.2993C41.4131 89.7885 42.6246 91 44.1138 91H83.8863C85.3755 91 86.587 89.7885 86.587 88.2993V39.7006C86.587 38.2115 85.3754 37 83.8863 37V37ZM83.8863 89.418H44.1138C43.4969 89.418 42.9951 88.9161 42.9951 88.2993V46.2247H45.0507C45.4876 46.2247 45.8417 45.8706 45.8417 45.4337C45.8417 44.9969 45.4876 44.6427 45.0507 44.6427H42.9951V39.7006C42.9951 39.0839 43.497 38.582 44.1138 38.582H83.8863C84.5032 38.582 85.005 39.0839 85.005 39.7006V44.6426H48.7533C48.3164 44.6426 47.9623 44.9967 47.9623 45.4336C47.9623 45.8704 48.3164 46.2246 48.7533 46.2246H85.005V88.2992C85.005 88.9161 84.5031 89.418 83.8863 89.418Z" fill="black" fill-opacity="0.8"/>
<path d="M64 64.791C68.3505 64.791 71.8955 61.2471 71.8955 56.8955C71.8955 52.542 68.3535 49 64 49C59.6464 49 56.1045 52.542 56.1045 56.8955C56.1045 61.2459 59.6483 64.791 64 64.791ZM60.1474 61.8921C60.597 60.8627 61.4573 60.0387 62.5086 59.6368C62.957 59.8647 63.4636 59.994 64 59.994C64.5364 59.994 65.043 59.8647 65.4914 59.6368C66.5426 60.0387 67.4029 60.8628 67.8526 61.8921C66.7856 62.7166 65.4495 63.209 64 63.209C62.5504 63.209 61.2143 62.7166 60.1474 61.8921ZM64 58.4119C63.05 58.4119 62.2772 57.6391 62.2772 56.6891C62.2772 55.7391 63.05 54.9663 64 54.9663C64.9499 54.9663 65.7228 55.7391 65.7228 56.6891C65.7228 57.6391 64.9499 58.4119 64 58.4119ZM64 50.582C67.4812 50.582 70.3135 53.4143 70.3135 56.8955C70.3135 58.3268 69.8339 59.6479 69.0281 60.7081C68.498 59.7702 67.7181 59.0025 66.7708 58.4873C67.108 57.9694 67.305 57.352 67.305 56.6891C67.305 54.8668 65.8224 53.3842 64.0001 53.3842C62.1778 53.3842 60.6952 54.8668 60.6952 56.6891C60.6952 57.352 60.8921 57.9694 61.2294 58.4873C60.2821 59.0026 59.5022 59.7702 58.9721 60.7081C58.1662 59.6479 57.6867 58.3269 57.6867 56.8955C57.6865 53.4143 60.5188 50.582 64 50.582Z" fill="black" fill-opacity="0.8"/>
<path d="M80.0175 71.8035H76.8998C76.4629 71.8035 76.1088 72.1577 76.1088 72.5945C76.1088 73.0314 76.4629 73.3855 76.8998 73.3855H80.0175C80.1549 73.3855 80.2667 73.4973 80.2667 73.6348V83.6678C80.2667 83.8052 80.1549 83.917 80.0175 83.917H67.7544C67.617 83.917 67.5052 83.8052 67.5052 83.6678V81.4806H72.1571C73.1668 81.4806 73.9883 80.6591 73.9883 79.6493V69.6163C73.9883 68.6065 73.1668 67.785 72.1571 67.785H55.8428C54.833 67.785 54.0115 68.6065 54.0115 69.6163V79.6493C54.0115 80.6591 54.833 81.4806 55.8428 81.4806H60.4947V83.6678C60.4947 83.8052 60.3829 83.917 60.2454 83.917H47.9824C47.845 83.917 47.7332 83.8052 47.7332 83.6678V73.6348C47.7332 73.4973 47.845 73.3855 47.9824 73.3855H51.1C51.5369 73.3855 51.891 73.0314 51.891 72.5945C51.891 72.1577 51.5369 71.8035 51.1 71.8035H47.9824C46.9726 71.8035 46.1511 72.625 46.1511 73.6348V83.6678C46.1511 84.6775 46.9726 85.499 47.9824 85.499H60.2454C61.2552 85.499 62.0767 84.6775 62.0767 83.6678V81.4806H65.923V83.6678C65.923 84.6775 66.7445 85.499 67.7543 85.499H80.0175C81.0272 85.499 81.8487 84.6775 81.8487 83.6678V73.6348C81.8487 72.625 81.0272 71.8035 80.0175 71.8035ZM55.5935 79.6493V69.6163C55.5935 69.4789 55.7053 69.3671 55.8428 69.3671H72.1571C72.2945 69.3671 72.4063 69.4789 72.4063 69.6163V79.6493C72.4063 79.7867 72.2945 79.8985 72.1571 79.8985H55.8428C55.7053 79.8986 55.5935 79.7868 55.5935 79.6493Z" fill="black" fill-opacity="0.8"/>
</svg>
