<svg width="128" height="128" viewBox="0 0 128 128" fill="none" xmlns="http://www.w3.org/2000/svg">
<rect y="63.6396" width="90" height="90" rx="20" transform="rotate(-45 0 63.6396)" fill="#F6CB6A"/>
<path d="M85.7683 58.8372H68.6147C68.1779 58.8372 67.8237 59.1913 67.8237 59.6282C67.8237 60.065 68.1779 60.4192 68.6147 60.4192H85.7683C86.2051 60.4192 86.5593 60.065 86.5593 59.6282C86.5593 59.1913 86.2051 58.8372 85.7683 58.8372Z" fill="black" fill-opacity="0.8"/>
<path d="M85.7683 64.7612H68.6147C68.1779 64.7612 67.8237 65.1154 67.8237 65.5522C67.8237 65.9891 68.1779 66.3433 68.6147 66.3433H85.7683C86.2051 66.3433 86.5593 65.9891 86.5593 65.5522C86.5593 65.1154 86.2051 64.7612 85.7683 64.7612Z" fill="black" fill-opacity="0.8"/>
<path d="M85.7683 70.6853H68.6147C68.1779 70.6853 67.8237 71.0395 67.8237 71.4763C67.8237 71.9132 68.1779 72.2673 68.6147 72.2673H85.7683C86.2051 72.2673 86.5593 71.9132 86.5593 71.4763C86.5593 71.0395 86.2051 70.6853 85.7683 70.6853Z" fill="black" fill-opacity="0.8"/>
<path d="M43.2864 60.4192H55.9235C56.3604 60.4192 56.7145 60.065 56.7145 59.6282C56.7145 59.1913 56.3604 58.8372 55.9235 58.8372H43.2864C42.2687 58.8372 41.4407 59.6652 41.4407 60.6829V83.3322C41.4407 84.3498 42.2687 85.1779 43.2864 85.1779H63.1284C64.1461 85.1779 64.9741 84.3498 64.9741 83.3322V60.6829C64.9741 59.6652 64.1461 58.8372 63.1284 58.8372H59.3709C58.934 58.8372 58.5799 59.1913 58.5799 59.6282C58.5799 60.065 58.934 60.4192 59.3709 60.4192H63.1284C63.2737 60.4192 63.3921 60.5375 63.3921 60.6829V83.3322C63.3921 83.4775 63.2737 83.5958 63.1284 83.5958H61.6319V78.7077C61.6319 76.8177 60.0942 75.2799 58.2042 75.2799H56.1839V74.9798C57.5448 74.0344 58.4381 72.4609 58.4381 70.682V68.9196C58.4381 66.0353 56.0915 63.6888 53.2073 63.6888C50.323 63.6888 47.9765 66.0354 47.9765 68.9196V70.682C47.9765 72.461 48.8698 74.0344 50.2306 74.9798V75.2799H48.2104C46.3203 75.2799 44.7827 76.8177 44.7827 78.7077V83.5958H43.2864C43.141 83.5958 43.0227 83.4775 43.0227 83.3322V60.6829C43.0227 60.5374 43.141 60.4192 43.2864 60.4192ZM51.8129 75.7225C52.2572 75.8456 52.7245 75.9128 53.2075 75.9128C53.6904 75.9128 54.1578 75.8456 54.6021 75.7225V77.0494C54.6021 77.8184 53.9765 78.444 53.2075 78.444C52.4385 78.444 51.8129 77.8184 51.8129 77.0494V75.7225ZM49.5587 68.9195C49.5587 66.9076 51.1956 65.2708 53.2075 65.2708C55.2194 65.2708 56.8563 66.9076 56.8563 68.9195V70.6819C56.8563 72.6938 55.2194 74.3307 53.2075 74.3307C51.1956 74.3307 49.5587 72.6938 49.5587 70.6819V68.9195ZM46.3649 78.7077C46.3649 77.69 47.1928 76.862 48.2106 76.862H50.2309V77.0494C50.2309 78.6907 51.5662 80.026 53.2075 80.026C54.8488 80.026 56.1841 78.6907 56.1841 77.0494V76.862H58.2044C59.2221 76.862 60.0501 77.69 60.0501 78.7077V83.5958H46.3649V78.7077Z" fill="black" fill-opacity="0.8"/>
<path d="M67.8237 81.1346V84.3868C67.8237 84.8236 68.1779 85.1778 68.6147 85.1778C69.0516 85.1778 69.4058 84.8236 69.4058 84.3868V81.1346C69.4058 80.6978 69.0516 80.3436 68.6147 80.3436C68.1779 80.3436 67.8237 80.6978 67.8237 81.1346Z" fill="black" fill-opacity="0.8"/>
<path d="M73.5415 81.1346V84.3868C73.5415 84.8236 73.8957 85.1778 74.3325 85.1778C74.7694 85.1778 75.1235 84.8236 75.1235 84.3868V81.1346C75.1235 80.6978 74.7694 80.3436 74.3325 80.3436C73.8957 80.3436 73.5415 80.6978 73.5415 81.1346Z" fill="black" fill-opacity="0.8"/>
<path d="M79.2595 81.1346V84.3868C79.2595 84.8236 79.6137 85.1778 80.0505 85.1778C80.4874 85.1778 80.8416 84.8236 80.8416 84.3868V81.1346C80.8416 80.6978 80.4874 80.3436 80.0505 80.3436C79.6137 80.3436 79.2595 80.6978 79.2595 81.1346Z" fill="black" fill-opacity="0.8"/>
<path d="M85.7683 80.3436C85.3315 80.3436 84.9773 80.6978 84.9773 81.1346V84.3868C84.9773 84.8236 85.3315 85.1778 85.7683 85.1778C86.2052 85.1778 86.5593 84.8236 86.5593 84.3868V81.1346C86.5593 80.6978 86.2052 80.3436 85.7683 80.3436Z" fill="black" fill-opacity="0.8"/>
<path d="M64 44.314C64.4369 44.314 64.791 43.9599 64.791 43.523C64.791 43.0862 64.4369 42.732 64 42.732C63.5631 42.732 63.209 43.0862 63.209 43.523C63.209 43.9599 63.5631 44.314 64 44.314Z" fill="black" fill-opacity="0.8"/>
<path d="M68.9913 56.8039C70.3718 56.8039 71.4949 55.6808 71.4949 54.3003C71.4949 52.9199 70.3718 51.7967 68.9913 51.7967H67.5781V50.3671H77.5358C77.9726 50.3671 78.3268 50.0129 78.3268 49.5761C78.3268 49.1392 77.9726 48.7851 77.5358 48.7851H67.5781V41.0526C67.5781 40.0349 66.7501 39.2069 65.7324 39.2069H62.2677C61.25 39.2069 60.422 40.0349 60.422 41.0526V48.7849H40.4277C38.5377 48.7849 37 50.3227 37 52.2127V72.8222C37 73.2591 37.3542 73.6132 37.791 73.6132C38.2279 73.6132 38.582 73.2591 38.582 72.8222V52.2128C38.582 51.1951 39.4101 50.3671 40.4277 50.3671H60.422V51.7967H59.0088C57.6283 51.7967 56.5052 52.9199 56.5052 54.3003C56.5052 55.6808 57.6283 56.8039 59.0088 56.8039H68.9913ZM58.0872 54.3003C58.0872 53.7922 58.5006 53.3787 59.0088 53.3787H60.422V55.222H59.0088C58.5005 55.2219 58.0872 54.8086 58.0872 54.3003ZM68.9913 53.3787C69.4995 53.3787 69.9129 53.7922 69.9129 54.3003C69.9129 54.8085 69.4995 55.2219 68.9913 55.2219H67.5781V53.3786H68.9913V53.3787ZM62.004 41.0526C62.004 40.9073 62.1223 40.7889 62.2677 40.7889H65.7324C65.8778 40.7889 65.9961 40.9073 65.9961 41.0526V55.2219H62.004V41.0526Z" fill="black" fill-opacity="0.8"/>
<path d="M87.5723 48.7851H80.983C80.5461 48.7851 80.192 49.1393 80.192 49.5761C80.192 50.013 80.5461 50.3671 80.983 50.3671H87.5723C88.5899 50.3671 89.418 51.1952 89.418 52.2128V85.3654C89.418 86.383 88.5899 87.2111 87.5723 87.2111H40.4277C39.4101 87.2111 38.582 86.383 38.582 85.3654V76.2697C38.582 75.8329 38.2279 75.4787 37.791 75.4787C37.3542 75.4787 37 75.8329 37 76.2697V85.3654C37 87.2554 38.5377 88.7931 40.4277 88.7931H87.5723C89.4623 88.7931 91 87.2554 91 85.3654V52.2128C91 50.3227 89.4623 48.7851 87.5723 48.7851Z" fill="black" fill-opacity="0.8"/>
</svg>
