<svg width="128" height="128" viewBox="0 0 128 128" fill="none" xmlns="http://www.w3.org/2000/svg">
<rect y="63.6396" width="90" height="90" rx="20" transform="rotate(-45 0 63.6396)" fill="#F6CB6A"/>
<path d="M85.1186 59.0276C86.1886 57.4729 85.991 55.4501 84.6379 54.1084C84.0416 53.5171 83.7924 52.6863 83.9711 51.8859C84.3768 50.0695 83.422 48.251 81.6492 47.4635C80.8678 47.1164 80.319 46.427 80.1807 45.6195C79.8672 43.7868 78.2841 42.4182 76.3311 42.2911C75.4704 42.2351 74.6959 41.7804 74.2594 41.0746C73.2688 39.4734 71.2719 38.7395 69.4019 39.29C68.578 39.5327 67.6828 39.3738 67.0068 38.8654C65.4732 37.7115 63.3312 37.7115 61.7977 38.8654C61.1219 39.374 60.2264 39.5327 59.4026 39.29C57.5331 38.7394 55.5356 39.4733 54.5452 41.0746C54.1086 41.7804 53.3343 42.2351 52.4735 42.2911C50.5205 42.4182 48.9375 43.7869 48.6238 45.6195C48.4857 46.427 47.9367 47.1164 47.1555 47.4635C45.3828 48.2511 44.428 50.0696 44.8335 51.8859C45.0123 52.6863 44.7629 53.5172 44.1667 54.1085C42.8138 55.4502 42.616 57.4731 43.6861 59.0278C44.1576 59.7129 44.2417 60.5731 43.9109 61.3288C43.1602 63.0434 43.7465 64.9974 45.3364 66.0804C46.0371 66.5578 46.4431 67.3311 46.4224 68.149C46.3757 70.005 47.6666 71.6262 49.5617 72.0915C50.1211 72.2288 50.6071 72.5358 50.9553 72.9545L46.5969 82.9332C45.9862 84.3317 47.3685 85.7717 48.8929 85.3279L53.6645 83.9392C53.8039 83.8989 53.9543 83.958 54.0226 84.0799L56.3611 88.2617C57.1092 89.5994 59.1601 89.505 59.7701 88.1082L64.3127 77.7076C64.3723 77.7057 64.4319 77.7057 64.4915 77.7076L69.0341 88.1082C69.6453 89.5072 71.6961 89.5975 72.4432 88.2618L74.7818 84.0799C74.8499 83.9579 75.0004 83.8988 75.1398 83.9393L79.9114 85.328C81.4365 85.772 82.8179 84.331 82.2074 82.9333L77.8489 72.9546C78.1972 72.5359 78.6832 72.2289 79.2426 72.0916C81.1376 71.6264 82.4285 70.0052 82.3819 68.1491C82.3612 67.3312 82.7672 66.5579 83.468 66.0806C85.0579 64.9975 85.644 63.0435 84.8934 61.3289C84.5631 60.5729 84.6471 59.7127 85.1186 59.0276ZM58.3088 87.5338C58.2096 87.7611 57.8799 87.775 57.7589 87.5587L55.4203 83.3768C54.9973 82.6203 54.0638 82.2539 53.2008 82.5049L48.4291 83.8937C48.1816 83.9655 47.9596 83.7342 48.0587 83.5073L51.9254 74.6538C52.7979 75.7872 54.2563 76.4188 55.7916 76.2488C56.6484 76.1541 57.4978 76.466 58.0636 77.0835C58.8845 77.9797 60.0411 78.4554 61.2212 78.4553C61.5945 78.4553 61.97 78.4058 62.338 78.3089L58.3088 87.5338ZM80.3757 83.8936L75.6042 82.5048C74.7412 82.2538 73.8075 82.6203 73.3845 83.3767L71.046 87.5586C70.9252 87.7747 70.5951 87.7607 70.4959 87.5337L66.4676 78.3106C67.9989 78.7137 69.6609 78.2626 70.7413 77.0833C71.307 76.4657 72.156 76.1536 73.0133 76.2486C74.5501 76.4189 76.0075 75.7871 76.8794 74.6537L80.7463 83.5069C80.8457 83.7347 80.6224 83.9651 80.3757 83.8936ZM83.794 58.2076C83.0365 59.3082 82.9015 60.6899 83.4328 61.9038C83.9001 62.9712 83.5353 64.1875 82.5454 64.8618C81.4199 65.6286 80.7677 66.8708 80.8008 68.1846C80.8299 69.3401 80.0262 70.3494 78.8464 70.6389C77.7429 70.9099 76.8163 71.5911 76.2606 72.5122C76.2591 72.5149 76.2575 72.5175 76.256 72.5201C76.1382 72.7164 76.0361 72.9231 75.954 73.1396C75.541 74.227 74.408 74.8934 73.1969 74.7587C71.8206 74.6061 70.456 75.1075 69.5471 76.0997C68.748 76.9721 67.4371 77.2044 66.3595 76.6648C65.993 76.4812 65.6048 76.3537 65.2085 76.28C65.2052 76.2793 65.2019 76.2786 65.1987 76.278C64.6722 76.1813 64.1311 76.1814 63.6046 76.2784C63.6027 76.2788 63.6009 76.2792 63.599 76.2795C63.2017 76.3532 62.8129 76.4809 62.4455 76.6648C61.3678 77.2045 60.0571 76.9721 59.2579 76.0997C58.4566 75.225 57.3014 74.7318 56.0958 74.7318C55.934 74.7318 55.771 74.7407 55.6081 74.7588C54.3981 74.8932 53.2638 74.2272 52.8509 73.1397C52.7688 72.9234 52.6669 72.717 52.5492 72.5208C52.5474 72.5176 52.5456 72.5146 52.5438 72.5114C51.988 71.5907 51.0616 70.9098 49.9584 70.6389C48.7787 70.3493 47.9751 69.3401 48.0042 68.1847C48.0373 66.8708 47.3851 65.6287 46.2595 64.8618C45.2698 64.1876 44.9048 62.9712 45.3721 61.9037C45.9035 60.6898 45.7685 59.3081 45.011 58.2075C44.345 57.2398 44.4679 55.9805 45.3103 55.1453C46.2681 54.1954 46.6685 52.8607 46.3815 51.575C46.129 50.4443 46.7234 49.3123 47.8269 48.8219C49.0819 48.2644 49.9636 47.157 50.1857 45.8597C50.3809 44.7188 51.3664 43.8668 52.5822 43.7878C53.9648 43.6979 55.2089 42.9674 55.91 41.8336C56.5267 40.8368 57.7704 40.3801 58.9338 40.7228C60.2574 41.1126 61.6956 40.8576 62.7813 40.0407C63.7358 39.3223 65.0694 39.3223 66.0242 40.0407C67.1098 40.8575 68.5478 41.1127 69.8716 40.7228C71.0354 40.38 72.2789 40.8369 72.8954 41.8336C73.5965 42.9673 74.8406 43.6978 76.2232 43.7878C77.439 43.8669 78.4245 44.7189 78.6197 45.8597C78.8418 47.157 79.7236 48.2644 80.9785 48.822C82.0821 49.3123 82.6764 50.4443 82.4239 51.575C82.1368 52.8607 82.5372 54.1954 83.4951 55.1453C84.337 55.9805 84.46 57.2398 83.794 58.2076Z" fill="black" fill-opacity="0.8"/>
<path d="M49.4206 57.2175C49.8537 57.268 50.2489 56.9757 50.3022 56.5646C51.1757 49.8315 57.2375 44.7541 64.4023 44.7541C71.5706 44.7541 77.6326 49.8342 78.5033 56.5709C78.5524 56.9511 78.8935 57.2299 79.2873 57.2299C79.3195 57.2299 79.3519 57.228 79.3845 57.2242C79.8181 57.1737 80.1265 56.7996 80.0735 56.3884C79.1057 48.9004 72.3686 43.2538 64.4023 43.2538C56.4397 43.2538 49.703 48.8974 48.7321 56.3814C48.6788 56.7926 48.987 57.1668 49.4206 57.2175Z" fill="black" fill-opacity="0.8"/>
<path d="M79.3849 59.2311C78.9526 59.1811 78.5568 59.4733 78.5036 59.8845C77.6333 66.6215 71.5711 71.7019 64.4025 71.7019C57.2372 71.7019 51.1754 66.624 50.3022 59.8904C50.2489 59.4793 49.8545 59.1871 49.4206 59.2374C48.9871 59.2879 48.6787 59.6623 48.7321 60.0735C49.7026 67.558 56.4393 73.202 64.4024 73.202C72.3691 73.202 79.1063 67.5551 80.0736 60.0668C80.1269 59.6557 79.8185 59.2815 79.3849 59.2311Z" fill="black" fill-opacity="0.8"/>
<path d="M75.5715 55.1322C75.3704 54.5454 74.8205 54.152 74.1703 54.1298L67.9686 53.9189L65.8406 48.3904C65.6175 47.8108 65.0531 47.4363 64.4025 47.4363C63.752 47.4363 63.1875 47.8108 62.9645 48.3904L60.8364 53.9189L54.6348 54.1298C53.9846 54.152 53.4346 54.5454 53.2336 55.1322C53.0326 55.7189 53.2336 56.3439 53.7459 56.7242L58.6323 60.3519L56.9275 66.0109C56.7488 66.6041 56.9734 67.2218 57.4998 67.5845C58.0256 67.9468 58.7144 67.9592 59.2545 67.6143L64.4024 64.3278L69.5505 67.6141C70.0899 67.9586 70.7788 67.947 71.3052 67.5843C71.8315 67.2217 72.0561 66.604 71.8773 66.0107L70.1725 60.3518L75.059 56.7241C75.5714 56.3438 75.7725 55.7189 75.5715 55.1322ZM69.1706 59.1906C68.6775 59.5567 68.47 60.1621 68.6422 60.7328L70.3181 66.2957L65.2575 63.0652C64.9977 62.8994 64.7001 62.8164 64.4024 62.8164C64.1048 62.8164 63.8072 62.8994 63.5475 63.0651L58.4868 66.2956L60.1627 60.7328C60.3347 60.1619 60.1274 59.5567 59.6344 59.1906L54.8307 55.6243L60.9273 55.4169C61.553 55.3956 62.0959 55.0214 62.3106 54.4637L64.4025 49.029L66.4945 54.4637C66.7092 55.0214 67.2521 55.3956 67.8777 55.4168L73.9741 55.6242L69.1706 59.1906Z" fill="black" fill-opacity="0.8"/>
</svg>
